<mxfile host="app.diagrams.net" agent="Mozilla/5.0 (Macintosh; Intel Mac OS X 10_15_7) AppleWebKit/537.36 (KHTML, like Gecko) Chrome/139.0.0.0 Safari/537.36 Edg/139.0.0.0" version="28.1.0">
  <diagram name="Page-1" id="8uk-uFo1nUoZ7mWUqLZX">
    <mxGraphModel dx="1664" dy="779" grid="0" gridSize="10" guides="1" tooltips="1" connect="1" arrows="1" fold="1" page="1" pageScale="1" pageWidth="1600" pageHeight="900" background="#FFFFFF" math="0" shadow="0">
      <root>
        <mxCell id="0" />
        <mxCell id="1" parent="0" />
        <mxCell id="PejnDQKfWoKK_Z0rBTD7-37" value="" style="rounded=0;whiteSpace=wrap;html=1;fillColor=#d5e8d4;strokeColor=#82b366;" vertex="1" parent="1">
          <mxGeometry x="279" y="499" width="986" height="113" as="geometry" />
        </mxCell>
        <UserObject label="" link="https://drive.google.com/drive/folders/1jYS05Qv671TmxVkUAdMZTzXhoJ8GKUki?ths=true" id="PejnDQKfWoKK_Z0rBTD7-7">
          <mxCell style="rounded=1;whiteSpace=wrap;html=1;fillColor=#d5e8d4;strokeColor=#82b366;gradientColor=none;" vertex="1" parent="1">
            <mxGeometry x="50" y="57" width="1524" height="128" as="geometry" />
          </mxCell>
        </UserObject>
        <UserObject label="&lt;div&gt;Metadata&lt;/div&gt;Manifest" link="https://docs.google.com/spreadsheets/d/1V0XPIDpCJUNVUASTJ-zIXU7Zcf5QFjRTAcKYHDz6wEw/edit?gid=916029031#gid=916029031" id="PejnDQKfWoKK_Z0rBTD7-1">
          <mxCell style="rounded=1;whiteSpace=wrap;html=1;" vertex="1" parent="1">
            <mxGeometry x="196" y="74" width="119" height="94" as="geometry" />
          </mxCell>
        </UserObject>
        <mxCell id="PejnDQKfWoKK_Z0rBTD7-2" value="Organization&lt;br&gt;Manifest" style="rounded=1;whiteSpace=wrap;html=1;" vertex="1" parent="1">
          <mxGeometry x="325" y="74" width="119" height="94" as="geometry" />
        </mxCell>
        <mxCell id="PejnDQKfWoKK_Z0rBTD7-3" value="Model Settings &amp;amp; Features YAML - From Root System" style="rounded=1;whiteSpace=wrap;html=1;" vertex="1" parent="1">
          <mxGeometry x="1086" y="74" width="119" height="94" as="geometry" />
        </mxCell>
        <mxCell id="PejnDQKfWoKK_Z0rBTD7-4" value="Stripe&lt;br&gt;Manifest" style="rounded=1;whiteSpace=wrap;html=1;" vertex="1" parent="1">
          <mxGeometry x="452" y="74" width="119" height="94" as="geometry" />
        </mxCell>
        <mxCell id="PejnDQKfWoKK_Z0rBTD7-5" value="LCI Push &lt;br&gt;Manifest*" style="rounded=1;whiteSpace=wrap;html=1;fillColor=#fff2cc;strokeColor=#d6b656;" vertex="1" parent="1">
          <mxGeometry x="579" y="74" width="119" height="94" as="geometry" />
        </mxCell>
        <mxCell id="PejnDQKfWoKK_Z0rBTD7-6" value="Any Others?" style="rounded=1;whiteSpace=wrap;html=1;" vertex="1" parent="1">
          <mxGeometry x="1448" y="72" width="119" height="94" as="geometry" />
        </mxCell>
        <mxCell id="PejnDQKfWoKK_Z0rBTD7-8" value="Items needed to be set up per provider" style="text;html=1;align=center;verticalAlign=middle;whiteSpace=wrap;rounded=0;" vertex="1" parent="1">
          <mxGeometry x="50" y="12" width="249" height="30" as="geometry" />
        </mxCell>
        <mxCell id="PejnDQKfWoKK_Z0rBTD7-9" value="Cedar Spec&amp;nbsp;&lt;div&gt;Document&lt;/div&gt;" style="rounded=1;whiteSpace=wrap;html=1;" vertex="1" parent="1">
          <mxGeometry x="63" y="74" width="119" height="94" as="geometry" />
        </mxCell>
        <mxCell id="PejnDQKfWoKK_Z0rBTD7-10" value="Athena DataView Metadata Manifest&lt;div&gt;(requires specific Cedar Spec Doc)&lt;/div&gt;" style="rounded=1;whiteSpace=wrap;html=1;fillColor=#dae8fc;strokeColor=#6c8ebf;" vertex="1" parent="1">
          <mxGeometry x="707" y="74" width="119" height="94" as="geometry" />
        </mxCell>
        <mxCell id="PejnDQKfWoKK_Z0rBTD7-11" value="NextGen Metadata Manifest&lt;div&gt;(requires specific Cedar Spec Doc)&lt;/div&gt;" style="rounded=1;whiteSpace=wrap;html=1;fillColor=#dae8fc;strokeColor=#6c8ebf;" vertex="1" parent="1">
          <mxGeometry x="835" y="74" width="119" height="94" as="geometry" />
        </mxCell>
        <mxCell id="PejnDQKfWoKK_Z0rBTD7-12" value="Epic SBO&lt;br&gt;&amp;nbsp;Metadata Manifest&lt;br&gt;(requires specific Cedar Spec Doc)" style="rounded=1;whiteSpace=wrap;html=1;fillColor=#dae8fc;strokeColor=#6c8ebf;" vertex="1" parent="1">
          <mxGeometry x="960" y="74" width="119" height="94" as="geometry" />
        </mxCell>
        <mxCell id="PejnDQKfWoKK_Z0rBTD7-13" value="" style="rounded=1;whiteSpace=wrap;html=1;fillColor=#dae8fc;strokeColor=#6c8ebf;" vertex="1" parent="1">
          <mxGeometry x="463" y="282" width="674" height="139" as="geometry" />
        </mxCell>
        <mxCell id="PejnDQKfWoKK_Z0rBTD7-14" value="New Provider Requirements" style="text;html=1;align=center;verticalAlign=middle;whiteSpace=wrap;rounded=0;" vertex="1" parent="1">
          <mxGeometry x="680" y="421" width="264" height="30" as="geometry" />
        </mxCell>
        <UserObject label="&lt;div&gt;Metadata&lt;/div&gt;Manifest&lt;br&gt;(Pull)" link="https://docs.google.com/spreadsheets/d/1RjoxhnErxhacgcr-d-2up1A60bKuxtJYiQTSog5gJAI/edit?gid=1275835938#gid=1275835938" id="PejnDQKfWoKK_Z0rBTD7-15">
          <mxCell style="rounded=1;whiteSpace=wrap;html=1;" vertex="1" parent="1">
            <mxGeometry x="606" y="302.5" width="119" height="94" as="geometry" />
          </mxCell>
        </UserObject>
        <UserObject label="Organization&lt;br&gt;Manifest" link="https://docs.google.com/spreadsheets/d/1LpBYKsOBoMon18W0DH2oF9-MnN4rgKYOJ9S_u-jakLo/edit?gid=213003367#gid=213003367" id="PejnDQKfWoKK_Z0rBTD7-16">
          <mxCell style="rounded=1;whiteSpace=wrap;html=1;" vertex="1" parent="1">
            <mxGeometry x="735" y="302.5" width="119" height="94" as="geometry" />
          </mxCell>
        </UserObject>
        <UserObject label="Model Settings &amp;amp; Features YAML - From Root System" link="https://careportal.atlassian.net/wiki/spaces/IM/pages/6877446327/Launching+a+New+Provider+on+Cedar#Deploy-Root-System-to-Enclave" id="PejnDQKfWoKK_Z0rBTD7-17">
          <mxCell style="rounded=1;whiteSpace=wrap;html=1;" vertex="1" parent="1">
            <mxGeometry x="995" y="302.5" width="119" height="94" as="geometry" />
          </mxCell>
        </UserObject>
        <UserObject label="Stripe&lt;br&gt;Manifest&lt;div&gt;(IL fills out, SA Uploads)&lt;/div&gt;" link="https://docs.google.com/spreadsheets/d/1wpXF54nAmdIgLMB0qe1D2_PPYcH44RWtwPvzc08Qtx0/edit?gid=966879439#gid=966879439" id="PejnDQKfWoKK_Z0rBTD7-18">
          <mxCell style="rounded=1;whiteSpace=wrap;html=1;" vertex="1" parent="1">
            <mxGeometry x="862" y="302.5" width="119" height="94" as="geometry" />
          </mxCell>
        </UserObject>
        <UserObject label="Cedar Spec&amp;nbsp;&lt;div&gt;Document&lt;/div&gt;" link="https://docs.google.com/spreadsheets/d/1wbXmJ955nE53Ex0Y1E-o8j3e4MrMwppH/edit?gid=1083347376#gid=1083347376" id="PejnDQKfWoKK_Z0rBTD7-19">
          <mxCell style="rounded=1;whiteSpace=wrap;html=1;" vertex="1" parent="1">
            <mxGeometry x="473" y="302.5" width="119" height="94" as="geometry" />
          </mxCell>
        </UserObject>
        <mxCell id="PejnDQKfWoKK_Z0rBTD7-21" style="edgeStyle=orthogonalEdgeStyle;rounded=0;orthogonalLoop=1;jettySize=auto;html=1;strokeWidth=2;flowAnimation=1;" edge="1" parent="1" source="PejnDQKfWoKK_Z0rBTD7-9" target="PejnDQKfWoKK_Z0rBTD7-19">
          <mxGeometry relative="1" as="geometry">
            <Array as="points">
              <mxPoint x="123" y="256" />
              <mxPoint x="533" y="256" />
            </Array>
          </mxGeometry>
        </mxCell>
        <mxCell id="PejnDQKfWoKK_Z0rBTD7-22" style="edgeStyle=orthogonalEdgeStyle;rounded=0;orthogonalLoop=1;jettySize=auto;html=1;strokeWidth=2;flowAnimation=1;" edge="1" parent="1" source="PejnDQKfWoKK_Z0rBTD7-1" target="PejnDQKfWoKK_Z0rBTD7-15">
          <mxGeometry relative="1" as="geometry">
            <Array as="points">
              <mxPoint x="256" y="242" />
              <mxPoint x="666" y="242" />
            </Array>
          </mxGeometry>
        </mxCell>
        <mxCell id="PejnDQKfWoKK_Z0rBTD7-23" style="edgeStyle=orthogonalEdgeStyle;rounded=0;orthogonalLoop=1;jettySize=auto;html=1;strokeWidth=2;flowAnimation=1;" edge="1" parent="1" source="PejnDQKfWoKK_Z0rBTD7-2" target="PejnDQKfWoKK_Z0rBTD7-16">
          <mxGeometry relative="1" as="geometry">
            <Array as="points">
              <mxPoint x="385" y="228" />
              <mxPoint x="795" y="228" />
            </Array>
          </mxGeometry>
        </mxCell>
        <mxCell id="PejnDQKfWoKK_Z0rBTD7-26" style="edgeStyle=orthogonalEdgeStyle;rounded=0;orthogonalLoop=1;jettySize=auto;html=1;strokeWidth=2;flowAnimation=1;" edge="1" parent="1" source="PejnDQKfWoKK_Z0rBTD7-3" target="PejnDQKfWoKK_Z0rBTD7-17">
          <mxGeometry relative="1" as="geometry" />
        </mxCell>
        <mxCell id="PejnDQKfWoKK_Z0rBTD7-27" value="*In Development" style="text;html=1;align=center;verticalAlign=middle;whiteSpace=wrap;rounded=0;" vertex="1" parent="1">
          <mxGeometry x="50" y="31" width="128" height="30" as="geometry" />
        </mxCell>
        <mxCell id="PejnDQKfWoKK_Z0rBTD7-30" value="" style="edgeStyle=orthogonalEdgeStyle;rounded=0;orthogonalLoop=1;jettySize=auto;html=1;strokeWidth=2;flowAnimation=1;" edge="1" parent="1" source="PejnDQKfWoKK_Z0rBTD7-28" target="PejnDQKfWoKK_Z0rBTD7-29">
          <mxGeometry relative="1" as="geometry" />
        </mxCell>
        <mxCell id="PejnDQKfWoKK_Z0rBTD7-28" value="Fill out manifests and items in blue" style="rounded=1;whiteSpace=wrap;html=1;" vertex="1" parent="1">
          <mxGeometry x="298" y="525.5" width="120" height="60" as="geometry" />
        </mxCell>
        <mxCell id="PejnDQKfWoKK_Z0rBTD7-32" value="" style="edgeStyle=orthogonalEdgeStyle;rounded=0;orthogonalLoop=1;jettySize=auto;html=1;strokeWidth=2;flowAnimation=1;" edge="1" parent="1" source="PejnDQKfWoKK_Z0rBTD7-29" target="PejnDQKfWoKK_Z0rBTD7-31">
          <mxGeometry relative="1" as="geometry" />
        </mxCell>
        <mxCell id="PejnDQKfWoKK_Z0rBTD7-29" value="Create an Enclave (Green)" style="rounded=1;whiteSpace=wrap;html=1;" vertex="1" parent="1">
          <mxGeometry x="498" y="525.5" width="120" height="60" as="geometry" />
        </mxCell>
        <mxCell id="PejnDQKfWoKK_Z0rBTD7-34" value="" style="edgeStyle=orthogonalEdgeStyle;rounded=0;orthogonalLoop=1;jettySize=auto;html=1;strokeWidth=2;flowAnimation=1;" edge="1" parent="1" source="PejnDQKfWoKK_Z0rBTD7-31" target="PejnDQKfWoKK_Z0rBTD7-33">
          <mxGeometry relative="1" as="geometry" />
        </mxCell>
        <mxCell id="PejnDQKfWoKK_Z0rBTD7-31" value="Create a Enclave (Red)" style="whiteSpace=wrap;html=1;rounded=1;" vertex="1" parent="1">
          <mxGeometry x="698" y="525.5" width="120" height="60" as="geometry" />
        </mxCell>
        <mxCell id="PejnDQKfWoKK_Z0rBTD7-36" value="" style="edgeStyle=orthogonalEdgeStyle;rounded=0;orthogonalLoop=1;jettySize=auto;html=1;strokeWidth=2;flowAnimation=1;" edge="1" parent="1" source="PejnDQKfWoKK_Z0rBTD7-33" target="PejnDQKfWoKK_Z0rBTD7-35">
          <mxGeometry relative="1" as="geometry" />
        </mxCell>
        <mxCell id="PejnDQKfWoKK_Z0rBTD7-33" value="Test with Provider End users" style="whiteSpace=wrap;html=1;rounded=1;" vertex="1" parent="1">
          <mxGeometry x="898" y="525.5" width="120" height="60" as="geometry" />
        </mxCell>
        <mxCell id="PejnDQKfWoKK_Z0rBTD7-35" value="Production - Set up provider in production base on enclave config (multi tenet)" style="whiteSpace=wrap;html=1;rounded=1;" vertex="1" parent="1">
          <mxGeometry x="1098" y="525.5" width="120" height="60" as="geometry" />
        </mxCell>
        <mxCell id="PejnDQKfWoKK_Z0rBTD7-38" value="Process - Super High Level" style="text;html=1;align=center;verticalAlign=middle;whiteSpace=wrap;rounded=0;" vertex="1" parent="1">
          <mxGeometry x="279" y="466" width="264" height="30" as="geometry" />
        </mxCell>
        <mxCell id="PejnDQKfWoKK_Z0rBTD7-24" style="edgeStyle=orthogonalEdgeStyle;rounded=0;orthogonalLoop=1;jettySize=auto;html=1;entryX=0.5;entryY=0;entryDx=0;entryDy=0;strokeWidth=2;flowAnimation=1;fillColor=#fff2cc;strokeColor=#d6b656;" edge="1" parent="1" source="PejnDQKfWoKK_Z0rBTD7-4" target="PejnDQKfWoKK_Z0rBTD7-18">
          <mxGeometry relative="1" as="geometry">
            <Array as="points">
              <mxPoint x="512" y="215" />
              <mxPoint x="922" y="215" />
            </Array>
          </mxGeometry>
        </mxCell>
        <mxCell id="PejnDQKfWoKK_Z0rBTD7-25" value="Not Necessary for Enclave?" style="edgeLabel;html=1;align=center;verticalAlign=middle;resizable=0;points=[];" vertex="1" connectable="0" parent="PejnDQKfWoKK_Z0rBTD7-24">
          <mxGeometry x="-0.0211" relative="1" as="geometry">
            <mxPoint as="offset" />
          </mxGeometry>
        </mxCell>
        <mxCell id="PejnDQKfWoKK_Z0rBTD7-42" style="edgeStyle=orthogonalEdgeStyle;rounded=0;orthogonalLoop=1;jettySize=auto;html=1;entryX=0.5;entryY=1;entryDx=0;entryDy=0;" edge="1" parent="1" source="PejnDQKfWoKK_Z0rBTD7-41" target="PejnDQKfWoKK_Z0rBTD7-29">
          <mxGeometry relative="1" as="geometry" />
        </mxCell>
        <mxCell id="PejnDQKfWoKK_Z0rBTD7-43" style="edgeStyle=orthogonalEdgeStyle;rounded=0;orthogonalLoop=1;jettySize=auto;html=1;" edge="1" parent="1" source="PejnDQKfWoKK_Z0rBTD7-41" target="PejnDQKfWoKK_Z0rBTD7-31">
          <mxGeometry relative="1" as="geometry" />
        </mxCell>
        <mxCell id="PejnDQKfWoKK_Z0rBTD7-41" value="Both are great - focus on the budget constraint options" style="text;html=1;align=center;verticalAlign=middle;whiteSpace=wrap;rounded=0;" vertex="1" parent="1">
          <mxGeometry x="511" y="642" width="264" height="30" as="geometry" />
        </mxCell>
        <mxCell id="PejnDQKfWoKK_Z0rBTD7-44" value="" style="shape=image;verticalLabelPosition=bottom;labelBackgroundColor=default;verticalAlign=top;aspect=fixed;imageAspect=0;image=data:image/png,iVBORw0KGgoAAAANSUhEUgAABHQAAAE+CAYAAADs90cbAAAKpWlDQ1BJQ0MgUHJvZmlsZQAASImVlwdUU1kTgO97L52EFrqUUEOR3gJICaGFIr3aCEkIoYQQCCJ2ZXEFVhQVESwLugqiYAVkrViwsAj2vkEWFXVdLIiKyv+AQ3D/ev45ZzJfJnNn5t68mzMBgKLFEYszYWUAskR5kqhAX1pCYhINPwgIgAyUgBuw5XBzxcyIiFCAypT9u3y4DaBxe8N6PNe/fv5fRYXHz+UCAEWgnMLL5WahfBTV91yxJA8ApB71Gy/ME49zF8pqErRBlGXjLJjk9+OcMsEYwkRMTBQLZV0ACGQORyIAgGyO+mn5XAGahxyEsp2IJxShXICyV1ZWNg/lNpTN0RgxyuP5GSnf5RH8LWeKPCeHI5Dz5F4mhOAnzBVnchb9n8fxvyUrUzpVg44qOU0SFIVa9BuE/sjIDpGzKGV2+BQLeRPxE5wmDYqdYm4uK2mKczOj2VPM4/iFyPNkzg6d4lRhgDxGmMeOmWJ+rn/0FEuyo+R1UyUs5hRzJNM9SDNi5f40PluevzAtJn6K84Vxs+W9ZUSHTMew5H6JNEq+F74o0He6boD8HLJyv9u7kC1fm5cWEyQ/B850/3wRczpnboK8Nx7fz386JlYeL87zldcSZ0bI4/mZgXJ/bn60fG0e+nBOr42Qn2E6JzhiikEoYAEn9PYFouoMYvL4BXnjm2BlixdJhIK0PBoTvWl8GlvEtZlJc7BzcAZg/N5OPhbv7k7cR0iDMO1b/CcATjmokz3tiyUDcGIBWpI37TN9BICSHQBnl3OlkvxJH2b8BQtI6O+BGtAG+sAYmANr4ABcgAfwAf4gGISDGJAI5gMuSANZQAIWgiVgJSgGpWA92AyqwU6wC9SDA+AwaAUnwFlwEVwFPeAWeABkYAC8BEPgAxiFIAgPUSAqpA0ZQKaQFeQAMSAvyB8KhaKgRCgZEkAiSAotgVZDpVAFVA3VQg3QIeg4dBa6DPVC96A+aBB6C32GEZgMq8F6sBlsCzNgJhwCx8DzYAGcAxfCRfA6uAqug/fDLfBZ+Cp8C5bBL+FhBCAKiAZiiFgjDISFhCNJSCoiQZYhJUglUoc0Ie1IJ3IDkSGvkE8YHIaKoWGsMR6YIEwshovJwSzDlGGqMfWYFsx5zA1MH2YI8w1LwepirbDuWDY2ASvALsQWYyuxe7DHsBewt7AD2A84HE4DR8e54oJwibh03GJcGW47rhl3BteL68cN4/F4bbwV3hMfjufg8/DF+K34/fjT+Ov4AfxHggLBgOBACCAkEUSEVYRKwj7CKcJ1wjPCKFGZaEp0J4YTecRFxHLibmI78RpxgDhKUiHRSZ6kGFI6aSWpitREukB6SHqnoKBgpOCmEKkgVFihUKVwUOGSQp/CJ7Iq2ZLMIs8lS8nryHvJZ8j3yO8oFIoZxYeSRMmjrKM0UM5RHlM+KlIVbRTZijzF5Yo1ii2K1xVfKxGVTJWYSvOVCpUqlY4oXVN6pUxUNlNmKXOUlynXKB9XvqM8rEJVsVcJV8lSKVPZp3JZ5bkqXtVM1V+Vp1qkukv1nGo/FaEaU1lULnU1dTf1AnVADadGV2OrpauVqh1Q61YbUldVd1KPUy9Qr1E/qS7TQDTMNNgamRrlGoc1bmt81tTTZGryNddqNmle1xzRmqHlo8XXKtFq1rql9Vmbpu2vnaG9QbtV+5EORsdSJ1Jnoc4OnQs6r2aozfCYwZ1RMuPwjPu6sK6lbpTuYt1dul26w3r6eoF6Yr2teuf0Xulr6Pvop+tv0j+lP2hANfAyEBpsMjht8IKmTmPSMmlVtPO0IUNdwyBDqWGtYbfhqBHdKNZolVGz0SNjkjHDONV4k3GH8ZCJgUmYyRKTRpP7pkRThmma6RbTTtMRM7pZvNkas1az53QtOpteSG+kPzSnmHub55jXmd+0wFkwLDIstlv0WMKWzpZpljWW16xgKxcrodV2q96Z2JluM0Uz62besSZbM63zrRut+2w0bEJtVtm02ry2NbFNst1g22n7zc7ZLtNut90De1X7YPtV9u32bx0sHbgONQ43HSmOAY7LHdsc3zhZOfGddjjddaY6hzmvce5w/uri6iJxaXIZdDVxTXbd5nqHocaIYJQxLrlh3XzdlrudcPvk7uKe537Y/S8Pa48Mj30ez2fRZ/Fn7Z7V72nkyfGs9ZR50bySvX72knkbenO867yf+Bj78Hz2+DxjWjDTmfuZr33tfCW+x3xHWO6spawzfohfoF+JX7e/qn+sf7X/4wCjAEFAY8BQoHPg4sAzQdigkKANQXfYemwuu4E9FOwavDT4fAg5JDqkOuRJqGWoJLQ9DA4LDtsY9nC26WzR7NZwEM4O3xj+KIIekRPxayQuMiKyJvJplH3UkqjOaGr0guh90R9ifGPKYx7EmsdKYzvilOLmxjXEjcT7xVfEyxJsE5YmXE3USRQmtiXhk+KS9iQNz/Gfs3nOwFznucVzb8+jzyuYd3m+zvzM+ScXKC3gLDiSjE2OT96X/IUTzqnjDKewU7alDHFZ3C3clzwf3ibeIN+TX8F/luqZWpH6XOAp2CgYTPNOq0x7JWQJq4Vv0oPSd6aPZIRn7M0Yy4zPbM4iZCVnHRepijJE57P1swuye8VW4mKxLMc9Z3POkCREsicXyp2X25anhg5IXVJz6Q/Svnyv/Jr8jwvjFh4pUCkQFXQtsly0dtGzwoDCXxZjFnMXdywxXLJySd9S5tLaZdCylGUdy42XFy0fWBG4on4laWXGyt9W2a2qWPV+dfzq9iK9ohVF/T8E/tBYrFgsKb6zxmPNzh8xPwp/7F7ruHbr2m8lvJIrpXallaVfyrhlV36y/6nqp7F1qeu6y13Kd6zHrRetv73Be0N9hUpFYUX/xrCNLZtom0o2vd+8YPPlSqfKnVtIW6RbZFWhVW1bTbau3/qlOq36Vo1vTfM23W1rt41s522/vsNnR9NOvZ2lOz//LPz5bm1gbUudWV3lLtyu/F1Pd8ft7vyF8UvDHp09pXu+7hXtldVH1Z9vcG1o2Ke7r7wRbpQ2Du6fu7/ngN+BtibrptpmjebSg+Cg9OCLQ8mHbh8OOdxxhHGk6ajp0W3HqMdKWqCWRS1DrWmtsrbEtt7jwcc72j3aj/1q8+veE4Ynak6qnyw/RTpVdGrsdOHp4TPiM6/OCs72dyzoeHAu4dzN85Hnuy+EXLh0MeDiuU5m5+lLnpdOXHa/fPwK40rrVZerLV3OXcd+c/7tWLdLd8s112ttPW497b2zek9d975+9obfjYs32Tev3pp9q/d27O27d+bekd3l3X1+L/Pem/v590cfrHiIfVjySPlR5WPdx3W/W/zeLHORnezz6+t6Ev3kQT+3/+UfuX98GSh6Snla+czgWcNzh+cnBgMGe17MeTHwUvxy9FXxnyp/bntt/vroXz5/dQ0lDA28kbwZe1v2Tvvd3vdO7zuGI4Yff8j6MDpS8lH7Y/0nxqfOz/Gfn40u/IL/UvXV4mv7t5BvD8eyxsbEHAlnYhRAUIVTUwF4uxcASiIA1B4ASHMm5+oJgSb/C0wQ+E88OXtPiAsAh84AMD7eBfgAUI+yGcqKKwCIQN/H+ADY0VGuUzPwxLw+LqHWAIijWQmMMPBvZHKW/67vf7ZAnvVv9h8RSwVTdX7KbQAAADhlWElmTU0AKgAAAAgAAYdpAAQAAAABAAAAGgAAAAAAAqACAAQAAAABAAAEdKADAAQAAAABAAABPgAAAACpdbbPAABAAElEQVR4AezdCaBUYx/H8f9d2kvZyZKlkC37UiKkIhVtElLaEEqyU8j2WkLZE1EoRLRI9qWy71RSEaKFtG+3e9/n99zOmJnm7jP33rn3+7zvbc76nOd8zjgz8z/PkrJy1ZosIyGAAAIIIIAAAggggAACCCCAAAIIJI1AatKUlIIigAACCCCAAAIIIIAAAggggAACCHgBAjq8ERBAAAEEEEAAAQQQQAABBBBAAIEkEyCgk2QXjOIigAACCCCAAAIIIIAAAggggAACBHR4DyCAAAIIIIAAAggggAACCCCAAAJJJkBAJ8kuGMVFAAEEEEAAAQQQQAABBBBAAAEECOjwHkAAAQQQQAABBBBAAAEEEEAAAQSSTICATpJdMIqLAAIIIIAAAggggAACCCCAAAIIENDhPYAAAggggAACCCCAAAIIIIAAAggkmQABnSS7YBQXAQQQQAABBBBAAAEEEEAAAQQQIKDDewABBBBAAAEEEEAAAQQQQAABBBBIMgECOkl2wSguAggggAACCCCAAAIIIIAAAgggQECH9wACCCCAAAIIIIAAAggggAACCCCQZAIEdJLsglFcBBBAAAEEEEAAAQQQQAABBBBAgIAO7wEEEEAAAQQQQAABBBBAAAEEEEAgyQQI6CTZBaO4CCCAAAIIIIAAAggggAACCCCAAAEd3gMIIIAAAggggAACCCCAAAIIIIBAkgkQ0EmyC0ZxEUAAAQQQQAABBBBAAAEEEEAAAQI6vAcQQAABBBBAAAEEEEAAAQQQQACBJBMgoJNkF4ziIoAAAggggAACCCCAAAIIIIAAAgR0eA8ggAACCCCAAAIIIIAAAggggAACSSZAQCfJLhjFRQABBBBAAAEEEEAAAQQQQAABBAjo8B5AAAEEEEAAAQQQQAABBBBAAAEEkkyAgE6SXTCKiwACCCCAAAIIIIAAAggggAACCBDQ4T2AAAIIIIAAAggggAACCCCAAAIIJJkAAZ0ku2AUFwEEEEAAAQQQQAABBBBAAAEEECCgw3sAAQQQQAABBBBAAAEEEEAAAQQQSDIBAjpJdsEoLgIIIIAAAggggAACCCCAAAIIIEBAh/cAAggggAACCCCAAAIIIIAAAgggkGQCBHSS7IJRXAQQQAABBBBAAAEEEEAAAQQQQICADu+BYhNYtHiJZWRkFNvxku1A+CTbFaO8CCCAAAIIIIAAAggggEDJCaSX3KE5cqIE5v+ywH6eO8/+/HORbdyYYTvttIPtvtsuduAB9S0lJSVRh8013wFXD7IXx71q2267jT094kE76MD9c92+NK2cNXuOzZ//a6hIJ590vFWsWDE0Hz6xaVOmzZ03P3xRrtN1dt/VKlWqZPH0WbJkqX3+xdeh4x566MG20447hOZzm5j90882b94voU1ObNLYKleuFJpnAgEEEEAAAQQQQAABBBBAoHQIENApHdchLqX44KMZ9sCwxyJ+zIdnvNcedaxnjy529lltizWw88uvv/lgjsry99//2KhnX7S77hgUXrRSPf3y+En22PCRoTJ+Mm1qjgGSpX//baec2i60bV4Tr44bbbVq1Yyrz7ff/WgXXjIgdOgHH/iftWrZPDSf28T4Vyfbw489Gdpk+vuv2y677ByaZwIBBBBAAAEEEEAAAQQQQKB0CNDkqnRchyKVIisrywdyzut6UY7BHB1g3i+/2rU3DLY+l11ta9asLdIxw3f+6utvrU7dQ0J/o597MXy17bjD9latWrXQsv32rReaZsLw4U2AAAIIIIAAAggggAACCCBQYAFq6BSYrPTt8PzYl23IA4/ELJgCKatXr45YN+n1qVa9erW41ZJRs67wFN1PTpUqlW3ss8Nt3CsTbe+99rT2bVuFb16up1NTUw2fcv0W4OQRQAABBBBAAAEEEEAAgUIJENApFFvp2Wnhwr98rZvwEh16yMF2zZWX2eGHNbC0tDT7ceZse+LJ0fbKq5NCm4198RU77dSm1uT4RqFlOU2oT5attqrh+3rJaZu8lqvPnPz2m/PXosW2tWuGpL5lCpo2btxoS5b8bTu6PmPS0vKugKbg06JFS2yHHbazChUqFPRweW5/avOm9vCwu3LcTgEdpfz6bNiwwZ/fNtts7QNBOWaczxXqiFnWOfUJlFM2gduOO25v6encRnJyYjkCCCCAAAIIIIAAAgggkCgBfoklSraY8g0P0uiQ6nT48YeH+ABFUAR1hnz3nTfZb7//EdEk69nnXgoFdAbfdo+98tpkv0tFF9h4Z+p4G/nM8/bgIyNCNXyaNT3RTmvR1M48o6Xfbu3addaoyWm2bt364FD+ddAt/7OhDw33QQp1gPzPsn+taYu2oW26dTnbLu3TMzSviVdcPzXqA+j9D6f7fna07Jijj7Rjjz7COrZvY7Vr76RFPv3++0Jr3e7cYNYuuaiHHXrIgTb0weH2znsfhpa3aXWaDbrxStvWBT/Ck8qtvobee3+azZz9U2iVnBo3Osb6XXZh3DoCVsAmCNqEDhQ1kR8flXXYw8Mjrt9RRxxmxzU62jq5PpHUrC2/SX0ajX72BXvjzXdtwW+/+90aNzrWbhp4Va5ZyG3og4/bu+99tIXbCY0bWt9LexUqCJfrQVmJAAIIIIAAAggggAACCCAQU4CATkyW5Fn4iuvENjwNuWtwRDAnWKfaJw8Pu9uOanhKsMimvvWurVix0te+UVBBHRYHSUGZF14aH8z6V22vv4xNm6xDu9aWmZUZsU/4xspr0V+L/aIM1yQrPO9//10evqndc99DNswFgKLTx598Zvob88LL9spLz9jOO+3oN9noatWE5/fFl1/7PKKblr06YbJ9990P9uaUcaFaJL/99od163mZzfl5bvTh7PsfZvq/6TM+s+GP3VegIMkWmRVgQV4+b0x9x3pd3H+LHD/9/EvTnzoyfumFkVsErrbYwS1YvnyFqa+lIJATbPPhtBnWuu25oQBfsDx4Va2ps8/p6fthCpYFr4HbR9M+sRGP32/bb79dsIpXBBBAAAEEEEAAAQQQQACBBAnk3SYlQQcm26ILKLASHZg4zA1RnVNSLQ6NdBWeon/YB+uigznBcr0OuHqg/fDjLEtNSY3o7Dh8G03XqFE9etEW86oBFB3MCe9AWTv8+dci63xuL1u69O8t9teCiZOnhmoRRW+gjqA1SlWQHnr0yS3Mok2++e57e/qZMcEuJfo64+PPtgjmNDjoQDcM/a6hcukcu3S7OEeDYEN1nt3/yhu3COYE6xUQU/9KsdKrr70eEcxRGc7t3CHi/SS30a7WFwkBBBBAAAEEEEAAAQQQQCDxAgR0Em+csCOE11LRQVSDRX3d5JYOOuiAiNWLFy+NmA+fuePWG+3LT9+18a52TP199wlfZWNfHO/7cPnxm2n24vP/DXOtjW4eeLX9+vPX9uKYyOURGbgZNdW6+95hEYufHvGQ/fD1R/bVZ+9Zw2OPCq1T0GK8CyrklC7q1c2+/OQdV9ZR1uSE4yI2++bb7/28RvZ6fuy40Do1IZs763N7961X7V3XxCw8vT7lrfDZQk+/98E069bj0ph/L457Lc98VXspPL328rP22iuj7cN3J7p+kvqGVqmWjGrI5JbU5O6td96P2GTQDVfZFx+/bcpXQZqc0utvvB1apWCSakzddsv19vbUV1xzt/+CiK9NyPkahTJgAgEEEEAAAQQQQAABBBBAoMgCNLkqMmHJZbBq5aqIg9eps3vEfKyZ2jtnN1sK1q2KGgErWH7ZJb2sc6d2flZ90Dzy0D3WpGnrYLWvoROaKeTEzFmzI/bUMZuckN1J8zZb17L7770toonYl199G7F9MKNAxNWuE+iUlBTfh9Dlrg+c997/KFhtv/6a3U9M5cqV7I1J/w2pvtuutUNNsfbaaw9retIJoYCHAkiqAZXuOpUuSlKtl/B+fcLz2mefvcNnt5hWB8+ff/F1aLn6HWpw8H8BuYt6d7PnxowL1bj56uvvrHmzk0LbR0/8/PP8iEXnn9fJLuja2S/bbrtt7dGH77FjG7eI2CaYCe9gWrW6JkycYs1OOdGqVq1izzz5kP27PLsZXXoat5TAjFcEEEAAAQQQQAABBBBAIJEC/PpKpG6C867lgh7h6bvvfwyfjTk9d94vEctruRGOYqVmTZtELN5zj919LZ2gE2EFGtSER0GUwqZvvv0hYtdjjjo8Yl5NxOrV3TvUROrjTz+PWB/MHHnEIRHliB5Na/367E6b1TnxfvvWM9VK+uyLr3xTrFmzfrJ//11hy/79NxQYCfIt6def5kT286OmaU+OfC6iWOH9Bumcckuzf/o5YrVqKIWn2jvv5GtFTZ/xafhiP61Oj8ODS32vuM4vVzDtiMMPsVOanmBHHnlYkQNgWxyYBQgggAACCCCAAAIIIIAAAjEFCOjEZEmOhRpuOjzpx72GGM+tU9rooM/228XuwHa3XXcJz9pP7+GCOkFARwv++WeZrxGzxYb5XBAdYKhde+ct9lQgKegnSE3MlkV1qKwdopuZqTaJRvuKbpKmbae4pkO9+1yhyWJJCnhc0qdHzGPtUWe3mMuDhT/P/SWYDL2GB3BCCzdPzJw1J3pRxPyvC36PmN9lly29995zD4sV0Ln4wgts1uyft+hjR/3m6G/EyNG+yd/opx+1unvvGXEcZhBAAAEEEEAAAQQQQAABBOIvQEAn/qbFlqNqnKh2RHjNiXfe/dDO6nhmzDKoI2N1MByeFDCJlf78c5FF195RHyzhqVatyBpC4evyM73XnpEdNC9avMSiy7Pwz79CWamz5Fo1t3I1aiJHyQptkMeE+pmJDuao/5eDD9rfarp8NSR3vNOurllXdG2n/B5j991qR2yqYdVPP61ZxDIFaersnt1BcrVqVSPWRc9EB3D+cu+FaO/f/lgYvZufT09Pt4eG/s96fdvFXpswxQ1d/mFEJ8naSO+tjp2722fT37LwJloxM2QhAggggAACCCCAAAIIIIBAkQQI6BSJr+R3PrNNy4iAzlXX3WwHH3yg1d+vXkThNFx1917/daKrlR3bn2HqVyZWev/D6Va//j6hVRq2WgGRIKnmSU4/2jMyNgWb5fp6sMsjPH3l+sgJb3alMocfs5HrJLkoTbzefX9a+OFMHTAHffZohWqmhAfHIjYugZn9ojqibuH6x1G/OeFJHT1v2LDBL6pYsWL4qi2m992nbsSyDz/62I495sjQMtV++uzzLZttqWndmjVr/Hb16u5p113TzwbeMMAPea8A4p13PxAKFKpWlJqKRb//QgdhAgEEEEAAAQQQQAABBBBAIC4CjHIVF8aSy6RVy+ZbNHvq1uMS39fK3LnzTbVeNJrSeV0vDv3oDkrbtUunYHKL1zvuut+mvvWeZWRk+L5l+lx2VcQ2Bx1UPzRfoUJkXDCnzotDO2yeOPCAfSMWKTCgWkRK6hD4uhtvjVh/6CEHRcwXdOaPP/6M2KVmzf9GBPvgoxmlKpijglapUjli5KlHHh/pmp/NC52Dru1Jzc6wBkec4P8GXD0otC7WRL26e0UsfujRETZh0hs+ILRw4V/W9/JrYw59riDN/g0ahf669+7n+09SU7cz2pxmZ7Q+LSLfilHvh4iVzCCAAAIIIIAAAggggAACCMRFIPKXeFyyJJPiFFBToSF3D7bzL+gTOqyavtx8612h+VgTV15xqR2w/36xVoWW9bywX2g6eqL16aeGFkX3fTPp9anW+syFdsIJDe2KfheHtoueUBMqjbT09KgxoVWnte5ke+1Rxxa5voDC+4tRnzgKXhUlHe067Q0ftvyc8y+y4xodbSvdaGGx+o0pyrHitW/vXufbxZde6bOTR9MWbf2w7NVd8yrVOAo36nRW7KZ2QVk03PhRRxxmn37+ZbDILul7dWg6pwmNgBU+AphGEOt4dndvt3TpP/bMs2NDu+ra7U0fOiEPJhBAAAEEEEAAAQQQQACBRAlQQydRssWYb5PjG9ljD92b7yMO6H+JXRzVdCd655OaNI5eFJq/7urL7eijDgvN77D9dqa+aMKTOsp98833whfFnB50w1XWoV2biHUaMjw8UKHAz5jRw2233bbsqDlixzxmmjQ5zhTUCJKO8cbUd0LBnJ13ihzSPdiuJF9bnnqK3T74hogiKKAycfLUCCMNaX78ccdGbBc9oyZyDw+7a4saXeHbNXTN2mKlfpf1jthPQaEhDzwSEczRfho+noQAAggggAACCCCAAAIIIJB4AQI6iTculiO0aH6yvf/2BOve9VxTACRWan16C3v5haft0ot7mDpUzi3d62r9KK/wpE55r72qn/Xq0SV8se/XZuh9t1tOQaDovnbSXAe7QdK6O28faNdc2dcPmR0s16uCL2ef1c7GjR1p+9TbO7Qquh+d6PnQhpsnUtPS/JRGBRs/bpTrpPjEiE00NPrYZ5+wRg2PjlgezKRGDc2empKzXfS2UbsGWUa85uajDc85u70Nu/9Oa+760Im+tvVdPztPDR9mAy7/r4ZW2ubzDQ6Slpp9/prXCGijnnrY2rQ6LSIvWcvg8MMaBLv511R3fZQ0FPybk1/aYj+tU5manHCcvTt1vOl9SEIAAQQQQAABBBBAAAEEEEi8QMrKVWuyEn8YjlCcAup/Rs2uFi1a4vs62c41V9rJ1T6pWrVKjsW4fMAN9vL4iaH1c3781NTJ7rp1623+Lwts2222th12iD3EeWgnN7HadZ67ePFS3weOmoPtuMP24avznFYHv/Pm/2rbbJ2/4+WZYQ4bZGzaZH+6fmOqVa/mjlW00bpyOERCFmdmZtov7npsdH0bKQijfnYKm2Qwb94vfoSvgl6nJa5JnDrKVlM41WzKK6hW2DKyHwIIIIAAAggggAACCCCAQGwBAjqxXcrd0pwCOuUOghNGAAEEEEAAAQQQQAABBBBAIAkEcm47kgSFp4gIIIAAAggggAACCCCAAAIIIIBAeRQgoFMerzrnjAACCCCAAAIIIIAAAggggAACSS1Ak6ukvnzxK/zy5SvcqElrfIYpqSm+X5T45U5OCCCAAAIIIIAAAggggAACCCAQTwECOvHUJC8EEEAAAQQQQAABBBBAAAEEEECgGARoclUMyBwCAQQQQAABBBBAAAEEEEAAAQQQiKcAAZ14apIXAggggAACCCCAAAIIIIAAAgggUAwCBHSKAZlDIIAAAggggAACCCCAAAIIIIAAAvEUIKATT03yQgABBBBAAAEEEEAAAQQQQAABBIpBgIBOMSBzCAQQQAABBBBAAAEEEEAAAQQQQCCeAgR04qlJXggggAACCCCAAAIIIIAAAggggEAxCBDQKQZkDoEAAggggAACCCCAAAIIIIAAAgjEU4CATjw1yQsBBBBAAAEEEEAAAQQQQAABBBAoBgECOsWAzCEQQAABBBBAAAEEEEAAAQQQQACBeAoQ0ImnJnkhgAACCCCAAAIIIIAAAggggAACxSBAQKcYkDkEAggggAACCCCAAAIIIIAAAgggEE8BAjrx1CQvBBBAAAEEEEAAAQQQQAABBBBAoBgECOgUAzKHQAABBBBAAAEEEEAAAQQQQAABBOIpQEAnnprkhQACCCCAAAIIIIAAAggggAACCBSDAAGdYkDmEAgggAACCCCAAAIIIIAAAggggEA8BQjoxFOTvBBAAAEEEEAAAQQQQAABBBBAAIFiECCgUwzIHAIBBBBAAAEEEEAAAQQQQAABBBCIp0B6PDMjLwQSKVC9WpVEZk/eCCRMYNXqtQnLm4wRQAABBBBAAAEEEECgfApQQ6d8XnfOGgEEEEAAAQQQQAABBBBAAAEEkliAgE4SXzyKjgACCCCAAAIIIIAAAggggAAC5VOAgE75vO6cNQIIIIAAAggggAACCCCAAAIIJLEAAZ0kvngUHQEEEEAAAQQQQAABBBBAAAEEyqcAAZ3yed2L/ay///57e3b0KMvIyCj2YxfmgIsXL7aRI0fawoULC7N7kfZZsGCBP/a///6bZz7ffvut37Y0u06dOtUmTZqU67m8+OKL9sorr4S2kf2XX34Zmo818cMPP/hz37BhQ6zVLEMAAQQQQAABBBBAAAEEyrQAAZ0kv7x9+lxsNapXjfg79JAG1q/fZbZ69apSc3ZvvTnVLrywtyXLj+958+ZZt27d7Mcffyx2wzFjxvhjV6xYMc9jT5kyxW9bml2HDBlid9xxR47nsmnTJuvYsaOdf/75oW1k/+qrr4bmY0288847/txXr14dazXLEEAAAQQQQAABBBBAAIEyLcCw5Ul+efVjWOmmm272r8tcrY6XXnzBRjzxhP3manqMe3m8X84/ySPwwQcfWKNGjaxq1arJU+gilDQtLc3effddq1ChQhFyYVcEEEAAAQQQQAABBBBAoHwJENApA9e7evUadsWAK0NnMnjwrdbw2KNNTV3WuNoLVatVC60LJrKysiwlJSWY9a+xlkVs4GbitU10viU5n59zCi9fQbcP3zevaTWdUvOk6667Lq9NC7W+KGUvyr55FbZJkyZ5bVJs6/M6z7zWF1tBORACCCCAAAIIIIAAAgiUawGaXJXBy69AzclNT/Fn9u/y5f516NAHrPFxDW3K66/bscccZVvVqOb7s1m3bp3deutgUzMtLWtyQmN77rlnQyofffShHXnE4fb222+5ZjHt/Tb77VvPHrj/vtA2mli1aqUNHHij31b5tGndyj788IOIbTTz1Vdf2mmntvBNxE46qYkvj5YrqdnQZBfM+Pvvv7MX5PCvmhm1bdvWB6SOO+44e/DBB0Nbrly50g444AB76qmn7NJLL7Udd9zRttpqK+vRo4dpXXh66KGH7Pjjj7fU1FQ76qij7NFHHw1fHTEtp4EDB9q+++4b2v6ZZ57x28yaNcsfU02lwtOnn37qlwf9x2g7lUPlUT5XX321c4tsFqd+YZQaNmzoX//880/r0qVL6DyaNWtmn332mV8X6x8FhHSMBg0a+OZigcfjjz9u5513ntWsWdNuv/12v+vMmTP9tjLabbfdrHfv3vbzzz+Hsr333nvt8MMPt/fff9/kLCfZyj886bx69erly6i8zjrrLFM/QNFp9OjRvlx6f5522mk2Z86c0CYq20UXXRSaj55QX0YXX3xx6BjXX3+9rV+/PmIzNdu67LLL/PmpHCeffLJfv2LFCrvmmmu8uey7d+9us2fPDu2b3/NUzakTTzzRO+y99942YMAAW7NmTSifnCZ+//33nFaxHAEEEEAAAQQQQAABBBAotAABnULTld4df5k/3557drQdcsghVrt2bV/QJUuW2Ndff+36HOlq++1X39fo0Q/ra6+52v535x129NFH2/XX32BqwtW7V097Y/OP9tWrVtusWTPt3HPOsSqVq1j/Kwb4wMsNN1wf6l9GQYSuXc+3+4bca4ceeqjfZt78eT5wM336tAio9u3auePv5/rTuchm/jjTOnRoZz/9lP3j+uWXx7lgQAcfGIrYKWxm2rRpduqpp9rcuXNdM7ObrFatWj5wc//99/utVBb1e9O3b1/7/PPPfRCgXr16NmLECHv22f8CVerT5ZJLLvHNfJSP+qtRQOHOO+8MO9p/k/3797fBgwfbscceazfffLN3Up8vCtbss88+pqDByJEj/9vBTY0bN86XRfuok+VTTjnFJkyY4MukGil33XWXD9YEzea084wZM3wexxxzjD+Gths/frwPxqh833zzjQ8+/fXXX3678H+UT8+ePf256jz2339/H7STh4I1CjBpvYJXCpAo7xdeeMHOcddWAbLnn3/emjdvbnqvKKnM6phYgZIjjzzSXbML/floXs5KCjjpvBTMCvJ53QUNtf0///zjt9E/6rz5iiuusJYtW/r8tM1JJ50Uyme+e8/qL1ZS4EbHfOSRR/y1v+CCC0zBtFtuuSVic70nhg0b5q+hzkeBJZmce+659r///c+fr4JCEydOtKZNm9rSpUv9/vk5TwWtTjjhBFNg77HHHrPWrVubAkH9+vWLKEOsmejAU6xtWIYAAggggAACCCCAAAIIFFSAJlcFFSuF26t2TPNmp/iSzZnzk/9BrpoVo0Y/t0VpH3S1Utq1ax9avperafDEiCfdj99Oflmv3hdand13tbfeetOat2gR2k4/1u+5d4ifv6DbBXbggfu72jQTfdBg8uRJPgB09z33+kCNNrr00svsoAMPsMdcrZeGDRuF8rn11tusu6tBonRKs+bWru0ZNmP6DBcU2dfXBtG2LZr/d9zQjpsnVBNEgYrp06dbNdeUTM1fOnfubJdffrkPWgTb77nnnr5flsqVK9ugQYN8DRSNpKSghIIhatJ05pln+qCLAls33nijD0yo9opqXkSnunXrmmqYyEGpT58+tt1229kbb7zhgxQKlOg4CmJss802vlzPPfecs27n5xUQUk0NBVfq16/v8zjssMN8eT788EMfbNBCTev8tt12W38dVTuniQu8qE8dJU2rdosCW8o7SHJQjSQFlRQsaRF27bSNjqW8g355VJMlCGQoCKekAIiOc99994Vq8Wi5akB16NBBk369atN8/PHHvtaOAkc6LwWLFMRRUj6qyaJgkbyVVFNI1+zAAw/087o+CrKoRpACfLkljX6l81WNKgVklBTcCvKK3leBy7322ssvVjBMQbRRo0b5wI4W6v2iGkwPP/ywr3UV7J/beb711lt+M/mqdpWSalGVxCho/uD8gwACCCCAAAIIIIAAAuVegIBOGXkL7Ln5B6xq5Pz88xz74osvXJCjr/sh+6xVqVIldJann94qNK0JBV6UfvvtNx+MWLEiu4nWHwv/8MuDf1qefnowaXX22MP2cD/IP/7kY7/sq6++8q9du3YLbaNgx59/LQrNBxMtXO2aIDVqlN2sSLV5lOrV28femPpmsHqLVzVPUkBEtTxUYyJICrYoaV3wQ75NmzamYE6QTnflD5pUqbaIkoIaCuYoqTnR22+/7adj/aOAjJKaEqlJ2PLNTdmC5jQKYiigM3nyZB84kInWqcaIUtDsSk10dG2UFNRQUgBCgRolBQ5UG0Vp++23d7Wmrve1WNQ8ScOYB7VeFi2KtFUQSuenAJOaZUUnBa+CYI7WKSCjYwbBHC1TgEKBH9VsCk8KIAVJtVSUPvnkEx/QUY2ixo0bh4I5Wqd8FWAKT7ou4QEY1c5RQEe1cvIK6MhHSTVzgrT77rtbp06dbPjw4cEi/6pjB+8BLQiap2lZ4B7s8NFHHwWT/jW38wyulQJKei+oCVoQ5NLOut7qsyo8qbPnWMHB8G2YRgABBBBAAAEEEEAAAQQKK0BAp7BypWg/dYr86KOPRZRo3LiXrOv5XVwNmUes3+XZwQhtUKlSpYjtJrnmJ5de2ifUzCZYGTSpCea32WbbYNK/KtiQlZnpp2fO/NF22WWXiABKxMZhM1tvvXVorlq16n46+sd/aIOoiaDPFQVHggBJ+CZaH/yYV/nCkwJMQQr6Twl+pAfLc3vVENqqHaRaLeEpcFKtDdVQefnll31A57XXXrMaNWqEasr89NNPfrcjjjgifHc/HZRHTYaUf1AbR82FbrvtNh8o2mKnqAVBsEpNgmIl9Z0TnhToUK2i6KTmYxoOPDypJlSQVPtIKbhmOeUTbB+87rzzzsGkf1UNpPwmBe923XXXLd5fQSAvPJ9Y56n1gWn4tmq+Fp5yO08FEVUbSddDwUElBckUlFKTPtVQUj890YmATrQI8wgggAACCCCAAAIIIBAvgdR4ZUQ+pUugTZszfIE+/ezTHAummiadOnX0tW00vPlPc+baosVL/XzlSv/Vbskxg80r6tatZ3/88Ydt3Lgxr02LtF4/6pXUPEplj/5Tvyn5SUEgJ6hdk9c+6mvljDPO8MEi1cDRua52o4cpeBReC0h96qh5kJoXqT8aNc8K1itQon5xosusefXFohT0n6M+d5R0LNX66dq1q1+nYM+8edm1mfwGYf+oE2gdQ/3FBIGvsNVbTB588MG+BlH0CtXUUoAiv0n5/PLLL/ndvFDb6XrpWgXBsyCT/Fy/oFaQ+gWKtg8CaUF+eb2qE2u9F3SdrrzySn+tVdNISX0UKcgV/ZdXnqxHAAEEEEAAAQQQQAABBAorQECnsHKlfL93333Xl3DffXPun+T777/z23S/oLtvpqNaFPrRq06VC5LU+bLSxIkTQrutXbvWB4sGDRoYWpafCTUlCmp/RG+vWjcK6qg/FY1WpNoi+lMzJNWgWbZsWfQuMefVf4qS+rgJT9dee62vUZO5ueZRsC5ooqUf7eqQWc3a9MM+OrgS9Glzzz33uI6ef/J9tQR5qFmSRrBSUCIod4UKFXy5g5GldF477LCD1alTx++mDomV1OxKwSCdv5o6xUpqpiUDBZMUfFLAKbek2kRqcqQATpBUDpVBnSbnN6mZ1ptvvuk7qQ72UaBETZLUZ1E8koJGSgpwBUlN3hQ8yyupCZnSd999F3KXv5rXqdlZfpNGuFIn1+np6f5aqENrdYisoFJe7ztdUxICCCCAAAIIIIAAAgggEG8BmlzFW7QE8lOnyMOHP+6PrBF1NLLUBNfkR6lVq9b+NdY/Bx2U/UNZI0RVcv3NaNjwO+7IHtI61vY5LVOQQ0GdLued60YeGmy7uf5Nxox53neU3LnzOTnttsVyjazVvn1bu7z/FT6fLTZwCzTClIadVgBD/dZodKkbbrjBb6r5/IwopCG61VmvOsVVPyfqF0Y/2IcOHer71VF/OuEpCADdfffdvsaNnFSO6LTTTjv5/n00+pICT+HNfNRhsUba0ohQ6rtHAakHHnjAB1CCwI2aOmmUqSAFwQg129E5q+aNRorKKakvGgVR1LeLzk8dAeeUVAaVR82HVDYFsVRTSM3EFLjKb9K+Gj1M/c+o1oqCcUFAa+zYsfnNJtftFKC69dZbfe0jDR2vIcnVd05+aui0atXKdzKtPpU0mplq+6g5nDo3VifL+U26Rup4W656n6ljbQUEFRgLb0YYKz+Zrlq9NtYqliGAAAIIIIAAAggggAAChRYgoFNoutKxYxB86H/5f8Mnqz+bVm5Y5SuvvDrU6W3Q+W94qVVT4ZlRo+1iN2JQNzfsuNLgwbfa2LFjwjfLcTplc+BDfeG88OI43wnzwIE3+u1Vm2To0Afd8M5t/Hxw/OA1PNNgWbXq2X21bO2GIs8pqWNcBXE0hLU6xVVSR7iaV6e/CrYoBXn6mRjzCt6otoWCDkHHxRrGXDUvwpPyUX8vGrFJQZWzzz7br1bfKeHDoAf7qMmT+vfp1q2b72g5WK6gkGqyqLlYj82jfKnJlobQVsfEqpmkWj3hfa4oSKJmPjqWat+opoeCNBplKji/6Nf27dv7oI+CM6oVFHSwHGwXlEe1XlRLRQGSoC8dba+mW8EoTtH7aN9gWfCqEbk0ipRqEQX5qOmXavrofagUvEf9zOZ/gv3Dl0VvF2yjgIlGq1IQSkEjJfVfo2Hk5Rlsp+XReahPHdXs0ahkQTBMARaZaqQspfD9/YKwZcE6BXI0RLveH0F/RQpkRnfKHOzPKwIIIIAAAggggAACCCCQaIGUlavWZCX6IORfugVUq0L9s9RygZToTpMLWnL1o6OAS0E6vQ0/hpokKdASK1WvViVisZqHaQSv8NGbIjbIx0xw7gpARQcDonfXtgq8KMBQFCeN1qXAkwJqQVKtEdUiUdOgoN+XYJ1M1MRLZVSNoninoHlWeKfAhTmG8lFHzqp9lKikJmVKCsoUNMlczaPyc61zyls1mfTfiq5dxYoVc9psi+XU0NmChAUIIIAAAggggAACCCBQRAECOkUEZPfiE4gO6BTfkRN/JNXEUS0jBRwSEbRJ/BlwhNwECOjkpsM6BBBAAAEEEEAAAQQQKIxAZGchhcmBfRBAoMgCqtWkZloEc4pMSQYIIIAAAggggAACCCCAQLkQoIZOubjMZeMky3INnbJxhTiLnASooZOTDMsRQAABBBBAAAEEEECgsALU0CmsHPshgAACCCCAAAIIIIAAAggggAACJSRAQKeE4DksAggggAACCCCAAAIIIIAAAgggUFiB2MMJFTY39kMggQI0W0kgLlkjgAACCCCAAAIIIIAAAggklQA1dJLqclFYBBBAAAEEEEAAAQQQQAABBBBAwIyADu8CBBBAAAEEEEAAAQQQQAABBBBAIMkECOgk2QWjuAgggAACCCCAAAIIIIAAAggggAABHd4DCCCAAAIIIIAAAggggAACCCCAQJIJENBJsgtGcRFAAAEEEEAAAQQQQAABBBBAAAECOrwHEEAAAQQQQAABBBBAAAEEEEAAgSQTIKCTZBeM4iKAAAIIIIAAAggggAACCCCAAAIEdHgPIIAAAggggAACCCCAAAIIIIAAAkkmQEAnyS4YxUUAAQQQQAABBBBAAAEEEEAAAQQI6PAeQAABBBBAAAEEEEAAAQQQQAABBJJMgIBOkl0wiosAAggggAACCCCAAAIIIIAAAggQ0OE9gAACCCCAAAIIIIAAAggggAACCCSZAAGdJLtgFBcBBBBAAAEEEEAAAQQQQAABBBBIh6BwAplZm2z1phWWmZVpKSkphcuEvRBAAAEEii6QlWXpqZWsalr1oudFDggggAACCCCAAAIIJIkAAZ1CXKh/NyyyV/58xJZk/GaZmzILkQO7IIAAAgjES0Ah9bTUdDu05sl24nYdLDUlLV5Zkw8CCCCAAAIIIIAAAqVWgIBOIS7NJ8um2J8ps21DxqZC7M0uCCCAAALxFkjJMvvw71esfvWjrHaVveKdPfkhgAACCCCAAAIIIFDqBAjoFOKSrMxYZps2ZlpWpvsF4VJKaoprdmWWPVeIDNkFAQQQQKBQAv4+7G6+rtWV/2eNawpLQgABBBBAAAEEEECgPAgQ0CnEVU5JCetL2gVyKqdUs4ppld0PCkI6heAsU7vQn1KZupzl6mSS9f61JmuFZdhGf61caN296o+EAAIIIIAAAggggEDZFyCgU8RrnJaeaidvc7YdWKshAZ0iWpaF3atVrVwWToNzKIcCq9esS76zdrGbF34fYgs2/GibMujPLPkuICVGAAEEEEAAAQQQKIoAAZ2i6G3et1J6FauSyugqcaBM+iyqufcCCYFkFMhKq5CMxbb0FD7GkvLCUWgEEEAAAQQQQACBIguEtR0qcl7lNoNkbaoQfcE2bNhgDz/8kH3zzTd+1ZIlS+zZ0aPszz//jN60VM2PGfO8ffH556WqTEFh1q1bZzNnzjS95pZ++eUXW7NmTW6bsA4BBKIEslzPZfofCQEEEEAAAQQQQACB8ihAQCfJr3qfPhdbjepVQ38777SjtW/f1obce48t+PXXAp3dDz/8YFdfdaXfVzv+Mn++XXhhb5s1a2aB8gnfOLxswXTj4xraA/ffF7cmaj17dLfxr44PP2xcpufM+cnemDLFNm0q+GhmCuK0bdvWqlSpYvvvv79/veiii7YI7IwaNcoOOOAA23PPPa1atWp+nwULFsSl/GSCAAIIIIAAAggggAACCCBQdgWoq57k1zYINlx33fX+TH7/4w97ffIkH4h4auRT9uGH06xWrVr5OssGDRrYUyOftiMOPyJf2xdko5tuutlvPs8FiV4eN85uuMGV1w0N1rdvv4JkU6zbvvDCC3bnHbfbosVLrWrVqvk+tmraNGvWzH7//Xfr16+fNW3a1F566SV79NFHfdDmnnvu8XlNnz7dunTpYvvss48988wz9t1339ndd9/t9/vkk08cD5275hudDRFAAAEEEEAAAQQQQACBciZAQKcMXPDq1WvYtZsDOjqdzMxMGz78cRtwRX87v8t5Nu7lVyw9PfJSq5lYdMAgNTXV1e7pEFeR7bff3k44oYldMeDKUL4DBw6yunvvaRMnTCjVAZ1QgQs4MXr0aB+Uefzxx61nz55+75YtW/qma1o2ePBgX2Pn/vvv9+vGjx9v9evX99Pr16+3oUOHukDch3b88ccX8MhsjgACCCCAAAIIIIAAAgggUF4EaHJVBq+0AjO9e19o3Xv0sHfeedvUlCpI6m9GTZ62qlHNDj2kgQ0aNNAyMjL8avXzcuQRh9uoZ54ONg+9/vTTbL9O+4cn9bejfSZPmhS+ONfpHXfc0Q488ED7a9Ffoe1Ob3ma3X77baF5Tai5k/L+7bffQsvHjh1jp53awjcxO6Xpyfbll1+G1gUTf7haSv36XWZ77VnH/9188002etQzPq9Vq1YGm9mbb75pnTt3CuX12GOPhta1a3uGPThsmJ9v1PBYO/OM1n5a/QzpXP/+++/QttET77//vu26667WtWvXiFUvv/yyzZs3zypXzh4Ja4o7vzPPPDMUzNHGV1xxhd/n448/jtiXGQQQQAABBBBAAAEEEEAAAQTCBQjohGuUselzzznPn9F332Z3cjxu3Eum/mZq1NjKVEum3j71fH85t9yS3RxKNXvUX06sYEXduvVs5coVLjAyKkLptdde9fscdfTREctzmlETsbfffsu+//57F8xoG9rsxx9/cDVYFobmNbHSBV9Uno0bN/jlU15/3Xp0v8DUWfM1115nO++8s7U87dSIfdasXm2dzupgI554wk49raV1Ob+ra+70ol155ZU+r4yM7P5wPv54hrU9s43NdwEWNVerWaumr9H00EMP+vxOP721HXzwwX66U6dO1qpVGz/98svj7CyX/8CBN0YcN3xG53biiSf6c+zVq5edfPLJ7hjX2ezZs2277bbzNaOWL1/uPFfaEUdENm/bfffd3fWpYT/99FN4lkwjgAACCCCAAAIIIIAAAgggECEQ2Q4nYhUzyS6gzniVvv76azv3vC5WoUIFu/W22+2iiy62ihUr+nVNTmhsE157zW65ZbCfz+kf1fo53wVHVItm6dKlPjChbV94YawLnJwWmo/eX8EXBVQWLlzom4Ip2KFaMuece55df/0N0ZvnOn/lVQNsD9d58Ftvv2M1a9b02yqwct+Qe0P7vfLKy/58Hx/+hJ19dme/XOd77DFH+eMGG156ySW23371XXDpXavqOiNWE7QLunW1a66+yi64oLt1u+ACW+gCTNOnT7NLL+sb6kPn8MMPt4YNG1mL5i2CrCJeFbD69ttvbZtttrHDDjvM9tprL9t7773tjjvu8H8ffPCBNW7c2NfU0Y4K4ESnevXqueDTrOjFzCOAAAIIIIAAAggggAACCCAQEqCGToii7E1UrFTJn9QqV2tFqXXrNr7PmhUrVvjaIzNmTDeNqPTzz3P8+rz+ade+vd/kjSmv+1c15dJIWEHgJLf991Rgo25dO/GkE22XXXbxw6Hf60biym9SmXWsc885NxTM0b49emT3URPk89VXX/nJDh06BotMTbzOOqtTaH716lW+tk6dPerYbFcTRvso6LWXC7wo5RZMqVdvH3tj6pvWqnV2E6xQppsnVq1a5afee+89u/nmm23u3Lk2depU/7rDDju4Jl7ZQSb1laNUafM18jOb/9HIWGvXrg1fxDQCCCCAAAIIIIAAAggggAACEQLU0IngKFszc+ZkB2pUU0Rp9uxZ1rtXT/viiy8KdaL77LOvqYbKK+Nf8TVsJk+a6PNpnkNtFa0MOkV+9NHHQsdULRbVhLnD1fY5pekpduRRR4XW5TShvmeUVEMnPKmvmvCkWjU6ZnQn0ArqBOnnn+f6SfXRo7/oNHfuz3booYdGL87XvGoOqcmUmlOpmVWQVFNHI15p2a9uOHnNK8UaolzXTaNkkRBAAAEEEEAAAQQQQAABBBDISYAaOjnJlIHlb7451Z+FhiNX6np+FxfU+cmeGPGk6yh5pmtS9Jev4aJRsvKbOrsaMgqCqA8YDet9XpfzQ82R8ptHWlqadex4lt/8q6+za9RoZs3qNRFZrAurpaJaPUp/uqZb4UlNusLTwQcd7PvYie4HKLzz5CCvq6+51hb89scWf6rJVJSkJlNK0UEl1dBR+ueff0zTCvzMnDnTLwv++ffff23x4sV+KPNgGa8IIIAAAggggAACCCCAAAIIRAsQ0IkWKSPzGsHp+uuuNXVmfJALcmgEK/Vf0+aMM3zzo93r1HFDZ1c1NQ0qSGrT5gy/+YMPDvPNljp2/K9pU0HymTQ5e1Qs9S+jpL5k3n33nYgsps+YEZpXrRv9jXe1gzZu3Bha/uqr40PTmmi8eajvPn0usmXLlvltnx09ytS3TpDUMbGCOh+7/BVU2Xrrrf3fsmX/2KSJE0xBFaXUlBT/Gsz7GffPokWLfJ87wXz062muTyGloPmXptXh9Lhx4zTprsdB/rVJkyY2YsQI06hcQRq2eWSto/PZyXSwH68IIIAAAggggAACCCCAAALlS4AmV2XgequT4WB0JgUbPnj/Pd+sSgGQiZMmh2rQaKhwBTeOPOJIX0Nk5Mgnff85Bamho6ZLzVu0sDvvuN0HWI47rnGugkGnyA0bNfLbLXO1U95++23f2bCCKsccc4xf3rBhI19mjcKlGjKfff7ZFsOna2SrK/pfbuedd461b9/BfnZNk2677daI4zdqdJxd60atUnOu3Sdm1+rRBuq4+fXJk0PbqkPmiy++yLp0OdfatWtvK1esdB1D3+TXt3XzSsHIXddec7Xr++Ycf96qndS+fVu7vP8VOXYk3b9/f3vggQeshXP63//+54cwf+qpp+x1N0rXVVddFaq5M2TIEJswYYLLr70fhUsjWw0cONA6dOhAkyt/BfgHAQQQQAABBBBAAAEEEEAgJwECOjnJJMlyjT6lpD5pgqT+V2666WYf9AiaF2ndiCdH2jmdz3Z9uVzmN1VQpHuPHjZ2zNhgV/+asrlmSrAwer5Tp7N9syuNVBXdrCjYJ/q1/+X9Qos0upSGE7/55lusWrXqfvn1N9zg+/gZM+Z505+20XDiGlUrSL169fbNqUY8MdzVpJloCkSNGfOCderU0Q8FHmx3rQv8KCj00UcfWkZGhrVs2dImuu3DAzpqKrbC9XPzxPDh1vW1Ln7Xxo2Pt/tdIKZq1aqh+Zann24aqvyTTz62WbPnWLXq1fy6rWvVCg63xatq/EybNs2Vq5N169YttF7BHI12FaS6rpPo559/3gYNGuSCSu384jZt2tjQoUODTXhFAAEEEEAAAQQQQAABBBBAIKZAyspVa7JirmFhjgLjFg61H9dOs4wNmZZWIdXabN/HGtQ8PsftS9sKNUWqUCHdB0QKU7aHH37Irr7qSpvx8aemWj/xTGvWrPEjPG277bY5ZqvmS8HQ6UFAK9hYHT+/On68ndKseahjYw1J3vDYo31TqXnzfw02Db2qT5vKlSuHAjmhFZsnNmzY4KeCod4VJMopkFW9WpXQ7jquOj1Wf0MaQj6nfbTD7Nmz/WhctXIJFIUyZgKBBAisWp18I6tlWZaN/u02m7/+O9uUkWkpWSl27m7XW93q2f2GJYCJLBFAAAEEEEAAAQQQKDUC1NCJw6VISUmurohUg6Qwac6cn3yzoTtuv903YYp3MEdlUu2YoIZMTmVUECfoYDh6m9q1a9t9993n/7p27WpbbbWVTXb99aj/oBtvHBi9uZ/fZpttYi4PFgaBnGA+t8BMsI1eVbOpjuurKD9p3333zc9mbIMAAmECKZb9v7BFTCKAAAIIIIAAAgggUG4ECOjE4VKvz3S1SjatssyszDjkVnqz+PCT9+yREUOteeumduutt9nqjBWlrrCproLMezPecQGdIfbOtDdtxYrlvhPiHn2GWvsOHRNf5o3ZtXlKHQwFQiAPgdUZ6/LYovStVg2djMyM0lcwSoQAAggggAACCCCAQDEI0OSqEMjhTa60e8XUypZm6a5GRiEyY5cyJRDd31CZOjlOpkwLqIlgsiWVeUPWOtuUtclViXP/p8lVsl1CyosAAggggAACCCBQBAFq6BQCL/qHz8as9bYxZb25h8Wk8i7Ae6C8vwM4/2IWUC2dIGVP/zcfLOcVAQQQQAABBBBAAIGyKEBApxBXtUaFbSxtU6rrhJMfDoXgYxcEEEAgbgK+Vpxq56SmWJa7J1dPz3kEurgdlIwQQAABBBBAAAEEECgFAgR0CnERjt66hS35a4EtTJ1n0bV1CpEduyCAAAIIFEXAtXetnF7ZGtRqYjtW2r0oObEvAggggAACCCCAAAJJI0AfOoW8VOoAWZ0hkxBAAAEESl4gxVKtclrVki8IJUAAAQQQQAABBBBAoJgEqKFTSOhUN1R5lbTqhdyb3RBAAAEEEEAAAQQQQAABBBBAAIHCC6QWflf2RAABBBBAAAEEEEAAAQQQQAABBBAoCQECOiWhzjERQAABBBBAAAEEEEAAAQQQQACBIggQ0CkCHrsigAACCCCAAAIIIIAAAggggAACJSFAQKck1DkmAggggAACCCCAAAIIIIAAAgggUAQBAjpFwGNXBBBAAAEEEEAAAQQQQAABBBBAoCQECOiUhDrHRAABBBBAAAEEEEAAAQQQQAABBIogQECnCHjsigACCCCAAAIIIIAAAggggAACCJSEAAGdklDnmAgggAACCCCAAAIIIIAAAggggEARBAjoFAGPXRFAAAEEEEAAAQQQQAABBBBAAIGSECCgUxLqHBMBBBBAAAEEEEAAAQQQQAABBBAoggABnSLgsSsCCCCAAAIIIIAAAggggAACCCBQEgIEdEpCnWMigAACCCCAAAIIIIAAAggggAACRRAgoFMEPHZFAAEEEEAAAQQQQAABBBBAAAEESkIgvSQOyjHNMrM2maWkQIFAuRZINWLK5foNwMkjgAACCCCAAAIIIIBAoQUI6BSarnA7/rTqK/tq1du2dv1qF88hoFM4RfYqKwLbVqxtx2/X1rZK36asnBLngQACCCCAAAIIIIAAAggUiwABnWJhzj7Isg2LbfzCB21DpdWWuTGrGI/MoRAonQJ/pM6yjYs32Jm1Ly6dBaRUCCCAAAIIIIAAAggggEApFSCgU4wXZkXG37Z60wpLWWuWtTmeQyWdYrwAHKpUCPi3fhDPdJXU/k5baBmZGZaeyu2oVFwgCoEAAggggAACCCCAAAJJIcAvqGK8TNlNrNTMKvvXbIrpf/QhUoyXgEOVAoEU9/7PdP8Lkv6LILAZaPCKAAIIIIAAAggggAACCORPgIBO/pzivlVqeoptn7arNdvxfEtNSXU1doIqC3E/FBkiUGoEUtx7ffH6BTZ10SjbZBmlplwUBAEEEEAAAQQQQAABBBBINgECOiV0xVJSU6xyWg2rW61BCZWAwyJQMgKVUir7A6t+GgkBBBBAAAEEEEAAAQQQQKBwArT3KZxbXPbKysp0jU+omRMXTDJJGgFq5iTNpaKgCCCAAAIIIIAAAgggUIoFCOiU4otD0RBAAAEEEEAAAQQQQAABBBBAAIFYAgR0YqmwDAEEEEAAAQQQQAABBBBAAAEEECjFAgR0SvHFoWgIIIAAAggggAACCCCAAAIIIIBALAECOrFUWIYAAggggAACCCCAAAIIIIAAAgiUYgECOqX44lA0BBBAAAEEEEAAAQQQQAABBBBAIJYAAZ1YKixDAAEEEEAAAQQQQAABBBBAAAEESrEAAZ1SfHEoGgIIIIAAAggggAACCCCAAAIIIBBLgIBOLBWWIYAAAggggAACCCCAAAIIIIAAAqVYIL0Ul42ilWKB3xZl2gffbLCv52TY/IWZtmxlZkJKu3WNVNuzdqodUi/djm9Q0XbbkRhkQqDJFAEE4iaQmZlpGRmbLGPTJsvclGlZWVlxyzs8o5SUFEtNS7X0tDRLT0+z1FTuj+E+TCOAQOkT4P5Y+q4JJUIAgeQWIKCT3Nev2Ev/2+JMGzVlnb39+YZiObYCRctmZ9qXszPsyYnr7OQjKtp5LSrbbjvww6VYLgAHQQCBfAvoh8r6DRstY2NGvvcpyoYKFG1ygSP9rV9vll4h3SpVrEBgpyio7IsAAgkRGZ3HSwAAQABJREFU4P6YEFYyRQABBIyADm+CfAtMmr7BhoxZk+/tC7rh6Y2qWotjq9h+dSpYjaopfveVa7Js1q8bbcqMNTZx2lofSFIwqX+nqtayYcWCHoLtEUAAgYQIbHRBnHXrXFRlc1q3foOrpZNhGxVwcTV1lNJcTZoKriZNenq6Va4U//uXAkn6q1y5klVwwR0SAgggUBoEuD+WhqtAGRBAoKwK8I2vrF7ZOJ/Xc1PX2QhXQyYR6fRGVazvWTXdU2Wz6lWyAznBcRTYObJ+Rau/RwW/zQNjl/vAjgJLy1dlWudmlYNNeUUAAQRKRGCDq5Wz3gVwlBTIWesCO1WrVLLtt9vaqlatYhU3B1c2uGDLmjVr7d/lK22Z+6viAi+JCOwosKTaOxVdbR0SAgggUJIC3B9LUp9jI4BAeRAgoFMernIRz1E1cxIVzLnu/Jp28pFVtgjkRBc5CPRcfnZNO7huRbv96eW+TDWrp1JTJxqLeQQQKDYBPXkOgjmrXbBGgZQ6u+1k1VwgJzopsFOxZg2r5f607cI/l9hqV3sn1rbR+xZ0XmVSHzvU1CmoHNsjgEC8BLg/xkuSfBBAAIGcBeiIJGcb1jgB9ZmTqGZW+Q3mhF8IBXYUANK+SiqbykhCAAEEiltAfUIEzawUoElzzanq7b17vgI0CuJoW+2jfRORVDaVkYQAAggUtwD3x+IW53gIIFBeBQjolNcrn8/zVgfIiUhqZpWfmjmxjh0EdZSHUqLKGOvYLEMAAQQCAXWArKRmVqqZs+futYNV+X7VPtpXeSQiBWVMRN7kiQACCOQkENx7uD/mJMRyBBBAID4CBHTi41gmc9HQ5IkazUp95gTNqAqDp32Vh5LKqLKSEEAAgeIS0NPnYDQr9ZlTe+ftC31o7as8EpFURmrpJEKWPBFAICcB7o85ybAcAQQQiL8AAZ34m5aZHD/4JjFPjFWzRh0gFzUpD42MpZSosha1jOyPAAJlUyDDjV6lpKfP6gC5KP3gaF/lkahaOkFZy+aV4KwQQKC0CQT3HO6Ppe3KUB4EECiLAnH4WV0WWTgnCXw9JyMhEC2OrVqk2jlBoVRLR8OcKyWqrMGxeEUAAQTCBTI2D0WuocnVyXFRk/JQXolIQVkTkTd5IoAAAtECwT2H+2O0DPMIIIBA/AUI6MTftMzkOH9hYpox7VcnfkPpBnklqqxl5mJyIgggEFeBzE3Z98eNrqaOhiYvalIeyisRKShrIvImTwQQQCBaILjncH+MlmEeAQQQiL8AAZ34m5aZHJetTExAp0bVlLgZBXklqqxxKygZIYBAmRJQR8ZKm1xNHQ1HXtSkPJRXIlJQ1kTkTZ4IIIBAtEBwz+H+GC3DPAIIIBB/AQI68TclRwQQQAABBBBAAAEEEEAAAQQQQCChAgR0Esqb3JlvXSMxb4+Va7KfbMdDJ8grUWWNRxnJAwEEyp5ASkp2TcO0tDTb4EaSKmpSHsorESkoayLyJk8EEEAgWiC453B/jJZhHgEEEIi/QGJ+sce/nORYAgJ71k7M22PWrxvjdjZBXokqa9wKSkYIIFCmBFLTsu+PFdLTbM2atUU+N+WhvBKRgrImIm/yRAABBKIFgnsO98doGeYRQACB+Ask5hd7/MtJjiUgcEi9ovcLEavYU2astVVri15LR3lMmbHGHyJRZY1VfpYhgAAC6Ztr06Snp9u/y1cWGUR5KK9EpKCsicibPBFAAIFogeCew/0xWoZ5BBBAIP4CBHTib1pmcjy+QcWEnMvEaWssMw79LSuPidOyn4wnqqwJASBTBBBIeoH0zbVpKleqaGvWrrfVRailo32Vh/JKRArKmoi8yRMBBBCIFgjuOdwfo2WYRwABBOIvQEAn/qZlJsfddky1k49IzA+MB8YuL1ItHdXOUR5KKqPKSkIAAQSKSyA1NdXSN49uVaVyJVv455JCH1r7Ko9EJJVRZSUhgAACxSXA/bG4pDkOAgggYMa3PN4FuQqc16JyrusLu1I1a97+rHBNrxTM0b5B7ZxElbGw58Z+CCBQPgQqVazgT1RPodUJ6PwFCwt84tpH+yaqdk5QxgIXjB0QQACBIggE9x7uj0VAZFcEEEAgHwIEdPKBVJ432W2HVOvfqWpCCG5/enmBgzpBMEf7KqlsKiMJAQQQKG4BPYWuvLlmTbWqVWxTxiabM3dBvppfqZmVttU+2jcRSWWjdk4iZMkTAQTyEuD+mJcQ6xFAAIH4CCSmB8b4lI1cSolAy4YVbfmqTBsxcV3cS6TAzLc/b7C+Z9V0PzzMqlfJHgo4+kAK5KjPHDWzCmrmdD+9sqlsJAQQQKCkBCq4Jk1ZWVm2fv0GH5hZ515//e0vq1qlktWqWcOqumBNxc1NszQ0uUazUgfI6jNHzawSVjPH1RpS2UgIIIBASQlwfywpeY6LAALlSYBve+XpahfhXDs3q2w1q6fakDHZo0oVIastdlWARn+nN6piLY6tavvVqWA1qmYHdlauyTINTa6RsdSZcpBUM4dgTqDBKwIIlKRARdf0Ss2m1q3L7thYQRoFdpYsXWYbM5bapk2bfPHS3MhYGsZXI79s7YI9iUqqmUMwJ1G65IsAAgUR4P5YEC22RQABBAouQECn4Gbldg8FUA6um26jpqyztz/fEHeHILCTW8bqAFl95tDMKjcl1iGAQHELKICSlpZq6zdstAxXE8fXvEnQqFU5nZs6QFa/FTSzykmI5QggUBIC3B9LQp1jIoBAeREgoFNernSczlOBlOu6VLXzmle2D77ZYF/PybD5CzNt2co4jEMeo4xb10i1PWun2iH10k1DkzOaVQwkFiGAQKkQUCBFzagyXVAlw/WNk+Fq5mRuyvRNshJRQNUKSnVBpHRX80fDBBPISYQyeSKAQDwEuD/GQ5E8EEAAgS0FCOhsacKSfAgosHKOa4Z1TrN8bMwmCCCAQDkS0A+XihXdn2WPglWOTp1TRQABBHIV4P6YKw8rEUAAgQILMDxQgcnYAQEEEEAAAQQQQAABBBBAAAEEEChZAQI6JevP0RFAAAEEEEAAAQQQQAABBBBAAIECCxDQKTAZOyCAAAIIIIAAAggggAACCCCAAAIlK0BAp2T9OToCCCCAAAIIIIAAAggggAACCCBQYAECOgUmYwcEEEAAAQQQQAABBBBAAAEEEECgZAUI6JSsP0dHAAEEEEAAAQQQQAABBBBAAAEECixAQKfAZOxQkgLvvPuhPTdmXK5FePb5l+y996fluk1eKzM2bbI5P8+zvxYtzmvTuKwf+8Ir9tbb78clLzJBAIHyKVBc98eS0NV9/977H/aHXvbvcnty5HM2c9acQhflg49m2DOjXyj0/vHeMfz84pn3Z59/ZVdde7OtWLEyntmSFwJJJ1Cc98eNGzfarNlzbPWaNUnnVJoKvGjxEhtw9SCbOfOnuBcrUffcuBc0HxmWts+zfBSZTeIsQEAnzqDlPbumLdpZnbqHbPF3510PxIVm3CsT7NY7huSa12133mcvj5+U6zY5rdSH8B133W9773u4NW3R1o5u1MwOO/oke++DogWIcjpesPx/9w6zF8a9GszyigACZVAg2e+Pg2+7J+LernvjZZdfZ7ovZ2Vl5fuKLV681Ma4IPYvv/6W730UqB/x1LOme/Ri9yX/5lvvsm++/T7f+0dv+NqEKXbjTbdHL/bzU996z5/nuedfFHP9hElv+PXtzuoac31hFoafn/bXj8/XJk4pTFYR+7z9zgc29sVXbP4vCyKWM4NAaRNI9vujPH//faH1vPByq1v/SGvesoPtf3BD69Dpgrj+9xeve0NBrn/wvf7zL77eYjfd+xufeLq/J3773Y9brI+1IL+fAT/8MMtedN+Np834NFY2RVoWfc8tSGbBZ0Tgotfzu19ijzz2lK1ZszbfWclOn4WffPplvveJtWFun2extmdZ2RNIL3unxBmVtMDOO+1ot9x0bUQx6uy+a8R8aZ15dPjT9ujjI23A5X3spBMb26pVa+z+YY/a+Rf0sXenjre99tqjtBadciGAQBIIJPP9MeC9/57brGq1qrZgwe/2oavp0v/KG/0X0tsHX2/p6Xl/rfjl1wV29XU32wP33m571NktyDbX15fGPOWDORUqVMh1u3isDIJTH06b4X+I7bnH7hHZPvTwCD+/VY0aEcuLMhN9fsOfHGXz5/9qrU9vUZRs7corLrXu3c6x7bffrkj5sDMCxSGQzPdHBXPad+pmK1aussE3XWcHHbifLfhtod0z5EFr0rS1zfhwitXeeaciM8br3lCQgtSru7ertT7Xnnr6OTvi8EMidv3k0y/cef7ulwX3zogNYszk9zNA38M/nf6m7ZCA+1f0PTdGMXNcFJxnnwu72yGHHGR///2PffX1d3bn3Q/Y61PetieHP2DbbbdtjvsHKzZlZvrPwrPPamdHH3VYsJhXBAosQA2dApOxQ14C2267jTVr2iTib9996vrdVPW7e6++Nvq5F+3Epm2sRcuOrtr7WFMTJ6VMd3PTvJbv36CRtT7zXJvyxtt+Xfg/b7z5rt9fT4ivH3ibLV++Inx1xPQXX35jF/YZ4PM7+7xeuT71/OCD6X7fPhd1twP238/fYIcOud1uu+V625iR4deprEMeeMSX8Zjjmtu1Nwy2v/9ZFjpmXutXrVptNw66w7SvDCa9/mZo32BC1UyVr85PFg8Me8w2bcr0q3/4cZbfb9SzL9pZ5/T057V69epgV14RQKAUCyTz/TFg1Zfs5qecaD27n2dPPfGgtT3jdF8L5KNpnwSbuFqSE0P3p4svvcqCJ7eTX3/L1erJDvjfcvs9/v6mnfK69996x712Sd+rQ/lHT+R0vGA7Bep1L9U9VU23Nm3+zAnW5/Sq5rDhSU1xZ87esvq/7tnXXD84dF8fePOdoWZOOjfVPrh/6GOm5SqDnuaq9kyQws9PNX+muyfSf/61yN/rXxz3mt8sP8fQuV0+4Ab/uaDrIZeOZ3d3tZqWeuO8yqEfKg89MiLCSjVs9VlMQiDRAsl8f9T3Wv03+/Cwu6zLuR3t0EMOtjatWtijD93j2Z4f+7J/1f1Q/42GJ92bdH9QWukCQvqurO+Iulf0uewq/9+v1hXl3qD8dY/Sd+uWbc72TcL0fTs4zl33DMuzpuXEyVPtn2X/qiihpJousVJO9+ScPgPko+/E2k8eqtmkZrWdOvewd9/7KHQI3Q/1XV7noW3CuyvIzS6UweaJ8Htu8L1aeXfrcanPW9cgr2a9Cm7p987ZZ7W1u+4YZHfeNtC++e57e+LJ0aHD6V6u66by6v6r7/P6TFAQ7JTmbf12qo2pc5/90895fhZqh7w+z/Q7RJ8Fus56D6kmbfi5cJ8PXZ4yM0FAp8xcytJzIpsyNvkAjW4owV8QzV648C976533bYS72Z3ifhCoffGNN91hQTVOBTc0v/POO9qFPc93H2wrrXefK2zu3PmhE1TwQh+GjRoebYc2OMgHh9TGNjhGaEM3MW/eL3Zet4tttmvLfFGvrn7Vpf2u8dXZw7cLpg8+aH8/2e+KG1x1/h98+fVk89zOHSwISt1y693+hnzooQdZuzNb+T59el10uX96rJ3zWq8PiWeeHWv199vHjmt0jF15zU0+uh+UYe3addaz9+X2qmsS0LlTOzv44AN8AOlu1yxLSevn/fKr3TDoNj/foV3rfD0V9xvzDwIIlKhAMt8fY8GlpaVarx7n+1XffZ9d3V73cd2jK7jaOrrvanmnc3vaH3/8abvvvos1Pu5Yv72+DLd2P3iU8rr367Pjpzlz/bbR/+R2PG2rvnLUlFbpzNan2fhXJ/sfDX5BLv80bnSsu1e/YOvXrw9tpQBPtWrVrP6++4SW6XPsgp6X2fNjx1mL5idbw4ZH2dOjxvjProzNDwL0dPu+oY/4vtlOP62ZqW+bC3pdFqqeH35+pzZvaqqpoOO0bdvK6u69h/+szM8xhj74uH3tnhS3d/ttt9029u+///rPi/yWY/iIUXaX+6ypWLGidWzXxiZOfMMeefwp/yMldMJMIJAggWS+P37vmgfpv9kmxzeK0NHDwbmzv7C+l/b2y/W9NKjREmyoIPGixdl9Niroq2aS3c7vbL3dvVVBlL5XXOc3Lcq9QfefJUuWmr4zfv/DTGvbsaurgf6YD8jvsN129tCjIyICJ0HZgtejjsiuQfJKWJcGS5f+7R+SNjz2qGAz/5rbPTmnz4B/3INRfbfVZ8fe7p7X9OQT/L1Xy1a6B6FKOvaAqwfaald7XjUP1Z9a9959TQ9ulXKz8xuE/RN+zw2+VytvBRWbnnSCvwY3Db4rbI+8Jzt1PNO/B7765nu/sY6h4NPy5Svtot7dXA2tHf33+Zdc4KiGq+F5RpvT/Ha777qLv9fXqlUzz8/C/HyeDXLvIX0WqAas7uP63XXO+b19wFEH5D7v2cvUP+ll6mw4mVIhoA8m9UETnp4e8ZA1OeG/D7nnnx1uO+24gw9YnHByKx9hP+aow61e3b1M2x533DGWnpbmasgcYR07X2Bfui+oe++9ZyjL++651T8h1gJFnl+dMNn+/HOR1a4dWZ11zIvjTQGg56e+4o/X2wWJTnYR8afdUwk9ZY5Ol13Sy752/TIoP/0p6elzjwvO9TV2VBNIX9S7djnbbh6Y/bR4r73q+CYH+oDca889cl1fu/bO7mY91Vqe2sw/xVH+JzY5zrr1vNSyMrM065/MKsL/6IP32KktmvpliubrS/WAKy7x8/qng7tJ3/O/m0PzTCCAQOkXSOb7Y066e7t7oNJ37h6oNOzB4T7gMXLEMB9sbt3qVDv+pNP9DxPdg/WD4oWXxttpLnARfKHN773fHyDqn7yO99TIZ32A5KWxT1n16tWsZ48udlKzM/1nQ1RWEbMKqKvZlWqEqumTvvQ/554iX9C1s33wwYzQtjNmfOZ/IOnprJ7UKu24w/b+Cel338+0Bi4or6RmC6NGPuI/2w46cH//w0RPb/XDJTzp8+btdz/wTa4uvbiHX6Wn0PqMyesYe+1RxyZPGGtVqlT2+6lJXHTKrRxPOivlMfa5J3weqoXV+KRWeVpFH4N5BAojkMz3xy+//tY9qKsX87T1fTa/SQ84FTDu7u4D2u/4xg1tydKlfvei3BsOPKC+DX/0PktNTfWBZN2DRz31sB1+WAM784yWvt9I1VSJ9d1YB9fDzfZtW9vIZ553waazfT5Bf5VntT/Df3cNzjGve3Ksz4Bg33v+d4v/jND815sDI8G6x1y3CLvvtquNcb8hqlatYl3P62QXX3a1fwCr88jNLsgjt9fzOne0W2/JDp5VqJBuL738mq+RtM3WtXLbLbQuJSXFNbXb3z7+5DO/LC09zf+mOcg9LN52m629e/2Dj7VPPvvSOnY4w/q4+7tq/KvZVnCvz+uzMK/Ps39dkEu1xdq0Os2G3ne7L0cT9zvjrM7dbYIL0Pdyn3/c50OXrMxMENApM5ey9JyIotv9Nj+JCEpVNywYoyePCuYoKXqsJxqKYivtt289W7r0Hxty38PuA+xvd1P83C/XF+nwdJK7OQXp1OYn+eCLnt5GB3Ren/KW30ydeQZJT0ain44E62rW3MrGjR3pPxzU8ZyeMqj6p/4mvfq861Mn+ymBPtD0ZEJp7txf/OsPP852TxM2+Omc1gedpbVwZQ7S8cc3DCb9q760K+nJsJ7MKAWv4TWVjm+c/ZTbb8A/CCCQFALJfH/MCTi4r9WqWdPWrVsfapLUt/91Ebt8+90PEfPhM/m994fvo+m8jhc8eVUtSwVzlPT5c+QRh7rRED/y8zn9o2C9aumMcjV8FNBR8189IFAwPTygox9BSieE3csVqFeV9x9nzg4FdI484hD/A03bBkGehe5BRH5Sfo+h2kFBMCenfHMqhx5YqMmIagYEeej9elyjo+2Nqe/klB3LEYibQDLfH7eqUd3XxCgqRvNmJ7kaFM/YUQ1P8UFvBViivyeGHyO/94bDXBMwBXOUVAteKfhurgC00gbX6XxuSQFrBTnUb85RRx7uAwMdXTCn1tY1Q7vldU8ObZjDRCN3D4uVdC9XwE/3cgVzlPR+GeuCO0EqqF2wX/B65JHZtZA0f9ihB/tzXbRoieU3oKP9lruAin7nKMlV99Ux7kHA738sDL0/on/T+I03/5PbZ2F+Ps9mzvrJ59T05OND2R7lPu+UNJAA9/kQS5maIKBTpi5n6TgZ3ci6nHtWjoWpUjn7yWGwQeXKlYJJe9C13VfTIj2d0Bfu+vX3iRl8SU3972mHqoYrxfog0ogoSru56oxBUlVKRcBV6yX4cAvWBa/6sq2/fpf1NvVVo9FQ1NGZyqSkJwRBnnpqoc6S1XGmPshyW79xY4ZfXzGsY8+0zR+wKakpfl1wo6+7154u2FXVL1M1211c7SN9yVYbYaX0NP7z9RD8g0ASCZSF+2M0d/CDQk1Wg3uutgnukZrWfVfNZHNK+b33R++f1/GC9dGdKYffg6PzDJ8/5+x2duElA3xzL9XsPME9LY/u5D+471dwTcyClJ5ewU8GQX7NhJehIE/stW9+j5GWj5oAOZWjUqXsz+LVq9fokKEUfOaEFjCBQIIEkvn+qBoievime074f2OiUt8oW21VI/RDP+gTUeuiuwu45qq+drgLJkx2DyRffnWSjXruBTupSWPXX1l2s3vtE57ye28IvmOG71vQaZ2javCpBojOQQHgzp3a2vIVK0NZBfdcLSjIZ0CQQU7fbYN+z3LreL+gdsExg9fwe3j4dLA+r1c93FDQSc1qlWZ8/JlvbqzAk65h9GdHrPxy+ywMbKPfX+GfZ8FnTnj59VtHD883bNho3OdjqSf/sv++fST/uXAGZUBA/RPow2LKpBf82XzgqovHejL49Tff+Wqi2kg3TCUFaaKTfkTow/DSS3patarZwRH146A+EaKDOfpwatm6kw8iqUmXkqpPNjz2SD+tD5H9Nlen7di+jV3ap6dfrg9TDQmrgMuatWv9spzWr9j8oTfdlVl9LSipSr5S0OTqgAP28/Ont2we6vVendDpKYFGSFDnliQEECh/AiV5f8xJW30YqKNNpcMPbeD6BajuA9677lrb9OU6SKpBqR804WldVN80+bn3h++v6byOF/yI+vjjz32faAqkqJbNF19l97kQnV/0vJpD6YvwjTfd6UYx+dYef+S+6E3swAPr+2VqGqzOopW+3Jz//vvv6+cL849GywlSoo4R5K9XPVzRwxTVTFXfR3pQ8alrGqBmYSQESrtASd8fD2lwoA/oPOhGwbu874Uhrvfen+Y6Qe9j117Vzy50/13pnvXp51+G7ke//f5HaFt9D/3ttz/s6KOP8E3u9f1S/T5OfetdXys8GDmpuO8NQQH1nbiba3Kqvi7/WrTYNyNV58/vfTAt2CTPe3JoQzcR/hkQvjzWtGpY6jPik0++CNnpAaj6itHDhGannJQvu1h5x2OZHhJfec0gn9XRrgsJpUmT3/SvUye96Ee9Ui3/hx970i8L/yeo5aplub2P8/N5pgfhSmp+FnTboM9ffe4d5D6ruM97njL3DwGdMndJS/6EFLF/5LGnIgqiD7pjj8kOjESsiJrRjwB9eVRP85UqVbTb79zyy7N2Ua//F194gS12HbxpCEe1DVatmejUylWTV0CnR+9+vt+bv1zZ1GmaarwEIw8E+6hzT7VjVceWin7ri/xqd/N96NHsm6+aOKmqvqrg33PfQ662TBXXZ04d3574/Q+n2+TXxvh+dnJbr46Q9eGnfniquv3VREydk4Wnhs5J0fy+/a+1qwdcZumuHa9GH1DHm9Pffz18U6YRQCDJBJL1/hjO/OTI51ynuRXcU+e5vrNFfVEcfNO1Phiu7dQxpDrW1Wh+ano0bfon9sRTo/02qr2p+6bSKNestLKrFaJ+dPJ77/c7Rv2T1/HUef2Djzxhl7i+Fk50fbmNn/B6REf0UdlFzOqzQH3mDHtouL8vnxyj7zX1/6Z7tkYmVFNcPUnWDx79+DjY9adQmLS/+6zQZ6FGpmnVspkl4hixyjX45mv90MsnNjvD1ybQ+1WfrQtcU2USAokWSOb743nnnOWCoW+5joYfdR0cL/HfeX/9dYFveqmgcLszT/d8emingM6VbjCPJicc54cCD1yzLMuPiKT5u24f5Gtp64Gh7i/buD5YlErq3uAP7v5p0+pUf39TwEAjwMZKed2TY30GxMonepn6ndHQ4P0H3GjNm53oult43T/0ffLxoU4ub7vo/Io6P2HSG772lbqNUFBL90nVzjnn7A4+6x13yu5eQqNeqYb/U08/H3FIPWBQn2bqtFi1nrRvXp+FeX2eqZmXfofoM1fdSOyyy87uN9lIf9xmmx84cJ+PuAxlYoaATpm4jKXrJP7++x9/ww0v1UW9uuUroHPDtf39sObqaV4fgL1d513qMCw8abk6JdYXZiWNlDJ0yB2mgEx0Ovqow1ynYHfa/S4PjUSlpDa2d952Y/Smfn7QDVf6plgaYUB/Sjrew8PuDtUI0pCUA1wUfrAbcldJH7TD7r/TB3M0n9d6BZL69r/ed3Ks7Qf0v8R/oAfVYZXfsyMftWtvvNX6Dcj+sFTASvspsq4nJEqbX/w0/yCAQHIIJPP9MRDWDxYl3atUC/Lkk473w/MG6xVsVzOdF8a96kf00/I+F3b3fR9oWk+Ze3bv4vuJ0OgtCujk594fVDMP7oHKSymv4+lpuX5gvejK8/obb/nPAH1xDvomy87lv3+D/INX9ZmjgI46zAyv7h/U8vT37Kcf8wGd69x9W+mYo4+0e12n9errQU9ulYL8/HTQ1DbsRh6cn9Z3cLVAv3f9smlkGj2ZVmeozxbwGMonlLI/NvxsbuXQj44pE190I0F+4K+hPi/1AIKATkiSiQQKJPP9Ud/Phj8yxK678Tb/YFAPB5UaHHSgPeA6p1XzfCV1fqtR7oL+Gfv3vcjX/tP9RD/wH394iA/2aPQmJf3gH/HYA6Fa5fG8NwT3guhXf+Cof4JblYIE6jdHnSqrbzGl4F4Y5JPXPTnWZ0Cwb3Cc8MMHy1TDSTXdx7pja+ASfT+/7urLfUfO2j8vu/A8NR3cc2Mee/NBg2OH7xtsr2sYJDWpOufs9r7D6OD3iPr7UWBeg5ror3fPrvbjrNnBLv71MteCQLVcrx94m6tpdECen4X5+Tx75MG77Qr3O0r9uCmp5uXTTz7k+ynVPPd5KZStlLJy1ZqssnVKpfdsFqydZSN+Gei+1GVZaoVU2yVtH7tgj1ssxf2PFCmgXtqru2qpufUzoLakGzZs8Df0yL1jzylP9UETtB+NvVX2UuX964LfXd5VQ22eo7fXMLCq9ppTZ2l5rVeNG7VxDfoAis5f86qGqae9qqJbVpL+Oxj5682WaZvcfwcp7r+Deta1zk2WlkJ8uaxcY84jsQIlfX/M79mpbwgNRVvTDcUa616u5gV6qhq+Lj/nltPx8zqePi82uvt20Pw2p3yKslz3bH3ZDzoVLkpe2jfD3f/Vz1rwA0LL4n0M5Rkk1RjViJH9+13kA0lq7ntck5Z+5JbwzkeD7XlFoLQJ5Oceksjvj/LQ979583/1zeSDztijndQ5rb7/5XSvUPMcBRMUtIiVivveEKsMeS3L654c6zMgrzy13ufr7k36/h1+bwz2zcsu2K64XlWLVX1/5nStdT56zwQBJpUrr/dxfj7PlKc+L6KbO3OfL64rX3zHIaBTfNZGQKcYsTlUqRUgoFNqLw0FQwCBci6gkSHVCbR+RKpj/m+++96LaLj1449jZMVy/vbg9BFAoAwIcJ8vAxcx6hR4JB4FwiwCCCCAAAIIIFAeBdSJ5tTJL9mHH31sS5YutU5nnelHJ8vP6Czl0YtzRgABBJJNgPt8sl2xvMtLQCdvI7ZAAAEEEEAAAQTKhcC++9Q1/ZEQQAABBMqmAPf5snVdCeiUrevJ2SCAAALlVmB95hpbkfGPZWZld0JbbiE4cQQQQAABBBAo8wKpKWlWK317q5BascyfKyeYswABnZxtWIMAAgggkCQCS9b/bi8uvM/+3rjQdSROQCdJLhvFRAABBBBAAIHCCLhOs1NTU2zPKgda250vtWrpNQuTC/uUAQECOmXgInIKCCCAQHkX+HrF+7YsfaFlrM9w40OXdw3OHwEEEEAAAQTKuoCeXy3I+sF+XvWNNah1fFk/Xc4vBwECOjnAsBgBBBBAIHkE1m9aY5kZWW480+wyp7inVvojIYAAAggggAACZUkgKzPL9KeUuSnL1metKUunx7kUUICATgHB2BwBBBBAoDQKRAZvaqRtbVVSq7v4zuYIT2ksMmVCAAEEEEAAgf+3dx6ATVVdHD+dtIXKUMHJEBkqslGGoLL3VPZeMkSGbJC9RKagooioyJQhMmQvRcEJggqiIvDJEgUESkvXd/+3vSFN0zZtk7RN/kfTvLx35++F+27OPedcEkgFAbVcJf/F/is3fa5bFrFompwKgB6YlAqdDL2p+CeZ8EdIhjaHlZOAGwj4ip8bamEV3kzA199HnsrTVCrkruPNGNh3EiABEiABEiABDySw+cIi+SFsh3IzZ8xAD7y9qe4SFTqpRuakDGrROCo2XC5EnKZSx0lIWUzWIHDp1tl4qwlYTlChmTXuWtZrpY+Pr/iqF4UESIAESIAESIAEPIsA58+edT/T1xsqdNLHL825oyNj5Fzkn7Lg5JA0l8GMJJDlCCgdDlxg6AaT5e4cG0wCJEACJEACJEACJEACJJDJCFCh48YbEvcj9nY8B/6wdSN8VpU5CGBB4fY/Ad2mWC4yZI57w1aQAAmQAAmQAAmQAAmQAAlkKQJU6LjxdoX655Yg3+wSHRgu0diNhUICXk7AP5uf5PK5S7nGMK6Ol38V2H0SIAESIAESIAESIAESIIFUEqBCJ5XA0pM8T8A90ui+HvL1lS1yM/ZGeorKFHlj4T6DP1rMu7ObFme+4eOjwkfTksPZcDO8vLt9HpQad7dhHKkMvxNsgDMJnLkQI/sO35JDJ6Lk5NkYuXzNNUELc4f6SqH7fKV0EX+pVipQHszHmEHOvI8siwRIwPkEYmJiJCoqWqKio9V2yzFW80jn1oV5o6+fr/j7+Ym/v5/4+nJ8dC5hlkYCJJBZCFCh4+Y7USK0ijyWo3KWjQWLB3HErUiJioxyM7m46vwD/CVbYAAfzBlC3/mVcpc35zNliRlH4MzFGFmyJVx2fnvLLY2Aoujy8Rj5/niUvLcxXGqUD5QOdYPkwbz84eKWG8BKSIAEHCbg7vkjFhyjleIIr4gIEc4fHb5VTEgCJJDFCFChkwE3DKsGWVEilRInPFw9FZXgh3h4xC21yhIlkXhgqpUWiJ9aCQlQKyH+/v4SlC1Qn3Pmn+jIaAlTr6CgbBKglDsUEiABEsgMBDZ9eUtmrQhzWVMaVgmRupWCpXiBAAkNiXuGXAuLlWOnImXLV2Gycf9NrUiCMmlQ6xBpUNn546/LOseCSYAEPJqA9fwRHc2I+SMWIvHi/NGjv2rsHAl4JQH+IvbK2576Tt9SVjkRSoEDwYP4plLshARnk7vvyi0hIcESGK9cuaUelmFhN+XK1WtyWb2CleLFFYodKJaw+hKorHUoJEACJJCRBJZtC5dFykLGFdKwSrD0b5VTWSWK5AhOuBgAxU6FRwLlkYIBOs3clVe1YgeKpavXY6Rt7SBXNIllkgAJkIDDBDh/dBgVE5IACZBAmghQoZMmbN6VCSsrRplzQylroEgp8OA9kl0pcmwFip3AnKGSS72Q9uy5v+WGst6xl9Y2b2o/o02wdqKlTmrJMT0JkICzCMAyx1XKnJGdckqNCsGJFDm2bTeKnoFtckrJhwNlygdXdZty5vClpY4tLH4mARJwGwHOH92GmhWRAAl4MQE62nvxzXek6/B5Nm5WUND4KXeqIoXzO6SggRIHaZEHeV0haBvaSCEBEiABdxNAzBxXuVk5qsyx7jMUO1AAIS8EbUMbKSRAAiTgbgKcP7qbOOsjARLwVgJU6HjrnXew3wiADIGbFSxzCuW/z8Gct5MhD/KiDFeIaaMrymaZJEACJJAUAQRAdoXAzcoRyxx7dRulDsqAuKqN9urmORIgARIwBMzcjPNHQ4TvJEACJOAaAlTouIarR5SK1RWzmxVi5tx3791p7hfyogxXCNpIKx1XkGWZJEACSRHA1uSu2s0KMXOMG1VS9Sd3HnlRBgRtRFspJEACJOAuApw/uos06yEBEiABESp0+C1IkkCU2r0KgtUVBEBOTxwc5EUZrrLSMW1NsjO8QAIkQAJOJLDvsGssDmFZgwDI6RWUgZ2xIK5qa3rbyPwkQAKeScDMyTh/9Mz7y16RAAlkLgJOmDZmrg6xNc4jEBW/FTm2JkeQ4/QKykBZrhDTVleUzTJJgARIwJbAoROuGcvqVgpJl3WOaSesdLDNOcRVbTV18Z0ESIAErAmYORnnj9ZUeEwCJEACriFAhY5ruHpEqTHRcWb6kcpSB1uTp1dQBspyhZi2uqJslkkCJEACtgROnnWNG1PxAgG2VaX5synLVW1Nc8OYkQRIwKMJmDkZ548efZvZORIggUxCgAqdTHIjMmMzEMgYEq0sdbAdeXoFZaAsV4hpqyvKZpkkQAIkYEvg8jXXKHRCQ3xsq0rzZ1OWq9qa5oYxIwmQgEcTMHMyzh89+jazcyRAApmEABU6meRGsBkkQAIkQAIkQAIkQAIkQAIkQAIkQAIk4CgBKnQcJeWF6Xx84laK/fz85JbaSSq9gjJQlivEtNUVZbNMEiABErAlkDvUNY/Pa2FxlpG29aXlsynLVW1NS5uYhwRIwPMJmDkZ54+ef6/ZQxIggYwn4JoZacb3iy1wAgFfv7ivR4C/n4SF3Ux3iSgDZblCTFtdUTbLJAESIAFbAoXuc83j89ipSNuq0vzZlOWqtqa5YcxIAiTg0QTMnIzzR4++zewcCZBAJiHgmhlpJukcm5E+Av7x1jT+/v5y5eq19BWmcqMMlOUKMW11RdkskwRIgARsCZQu4pqxbMtXN+X6zfRb6aCMLV+F6Wa7qq22TPiZBEiABEDAzMk4f+T3gQRIgARcT4AKHdczzrI1+Mdb0wRlC5SwmxFyIx1WOsiLMlCWK8S01RVls0wSIAESsCVQrZRrxrKN+8MkxgnxllHGxv1xlpWuaqstE34mARIgARAwczLOH/l9IAESIAHXE6BCx/WMs2wNvr6+4h+/u1VwUDY5e+7vNPcFeVGGKwRtRFspJEACJOAuAg/m85Ua5V2j1Jm78mq6rHRgnYMyIGgj2kohARIgAXcR4PzRXaRZDwmQAAmIcJbHb0GyBLIFBujrWGVBkLuTp88mm97eReRBXldZ55g22qub50iABEjAVQQ61A1ySdGwrNn5Tdpcr6DMQV5jneOqNrqk4yyUBEjAYwiYuRnnjx5zS9kREiCBTEqACp1MemMyS7OwyhIUb1mTPSRYoqOi5cTvpx1yv4KbFdIiD/K6QtA2Wue4gizLJAESSInAg3l9ZVDrkJSSpen6lA+uplqpY5Q5yAtB29BGCgmQAAm4mwDnj+4mzvpIgAS8lYBrojp6K00P7XeAcmmKjY2ViIhbWjETrt5PnTkvIcHZJFfOUAlRyprAeNcsbE2O3awQABkxc+Bm5TLLHGU1hLZRSIAESCCjCDSoHChXr8fIoo3hTm8CFDM//nZL+rfKqRTXIjmCfezWAUUOYubAzcpY5nRrGCRoG4UESIAEMooA548ZRZ71kgAJeBMB/hr2prudjr4GKtcruE2Fh8cFNoaSBoqdvy9dlsioSxIdHa1L91M7Y2GbSuxskFspe1wlsMyhMsdVdFkuCZBAagi0rR0kOXP4yqwVcbtKpSZvSmmhoMGrYZVgqVspRIoXCJDQkDjFzrWwWMHW5NgZC8GUjcAyh8ocQ4PvJEACGUmA88eMpM+6SYAEvIEAFTrecJed1EcoUPz8fCXiVqREKUscbXnjol2rkmoyAiDDL5tuVkkR4nkSIIGMIAAFSsmH/WXJlnDZ+e0tpzfBKHaSKxgBkBEzh25WyVHiNRIgAXcT4PzR3cRZHwmQgDcRoELHm+62E/oKRQrcqGKUUiVKxcaJUpY5MdEx2iXLCcUnKgJWQb5KieSvLH+wDSYVOYkQ8QQJkEAmIQBFysiOIdKhTpDsO3xLDp2IkpNnY+TyNSfsQ26nj7lDfaXQfb5Suoi/YGty7mZlBxJPkQAJZAoCnD9mitvARpAACXggASp0PPCmuqNLeDAHBqqXxO2C5Y46WQcJkAAJZAUCUKy0U25Y7WpnhdayjSRAAiTgPgKcP7qPNWsiARLwDgLc/sI77jN7SQIkQAIkQAIkQAIkQAIkQAIkQAIk4EEEqNDxoJvJrpAACZAACZAACZAACZAACZAACZAACXgHASp0vOM+s5ckQAIkQAIkQAIkQAIkQAIkQAIkQAIeRIAKHQ+6mewKCZAACZAACZAACZAACZAACZAACZCAdxCgQsc77jN7SQIkQAIkQAIkQAIkQAIkQAIkQAIk4EEEqNDxoJvJrpAACZAACZAACZAACZAACZAACZAACXgHASp0vOM+e0wvd+3+XJatWJNsf5YuXy179u5PNo07L8bGxsr//ndW/vjjT4mOjnFn1ayLBEjAiwhkhfExJiZGxk2cLps+267vzC/HTsh77y+Tq1f/S/Od4hibZnTMSAJZioDt+JGexl++clWPPRiDkhJHxtSk8jp6Pi19Sss819VjrTPKd5TZylXrZMfOvY4mZzoS8HgCVOh4/C12bwdr1m0hBR4uneg1bfpcpzRkzboNMmnqrGTLmjxttqz9ZFOyaZK6OHHyjERtb9Wuh+XHB/LZpin7ZHV5aeBIQdvww8Ja1ql2PFb6KanyTH15tnZTeahYWXl74QeCB7g9ebRUlQT1o+wBL4+Sc+cv2EvOcyRAAlmIgKeNj8mNfUndlqv/XZPFHyyTtes26iTffX9Ixk+aLpcu/ZNUlmTPpzTGYkxeoSb/B7/+PtlyHLn408/HdFk3wsIcSc40JEACqSBgOz4+W7OJjB4zJcG/XdvxIxXFJ0p68eLfeuw5/OPRRNfMCUfmnCat7fu2HXv0fG7mnDdtLwnmlegfJC19Smmee/HiJT1W/XnqjKVuV4+16S0fDXV0jH115jxZtWa9pW88IAFvJ+Dv7QDYf+cTuPeefDJh3IgEBRfI/0CCz5n9w5vzXpPs2UPkwvmL+qHRp98QefftOVKrxjOWps+ZMVlCVJrTp/8nn3/xlQwa8oqeeEyZOEr8/f3l62++lwGDR0nD+rWle9f2+twa9SNmyquzJXfuXNLyubiHuaVAdXBnntxy48YN+WDRGxIVFSWH1EQDq9f7VPn792yW4OAg6+Q8JgESyGIEPGF8TGnsS+6W5M6VUw59u1eyhwQnl8yha46MsdFKeT5s5Hhp06qFPPlEWYfKTSrRrj1fyIxZ86VqlYqq/SFJJeN5EiCBNBIw42NUZJSc+O132bBpmyxZtkpenTJWWrdsJs4cP9LYRIezmQW+1+e/o8eMJyrYH39c0ac/T53W497cmVOkYIEHHW5zUgkdGWuTypua8xxjU0OLaUngNgFa6NxmwSMnEbjzzjxSu+YzCV7Fij6sSx86Yrx069lfPlr2sV6dqNugpXz40UqJio7W12G5gs84D2uVxs3ay5atOxO1bOv23To/VohHjZmcrLn+d98fll59B+vy2nToKZ9u3JKoPNsTT1V+Up6pVkVaqQkEJhKQ7TsSmndWf7aq1Kn1rPTo1kEWvztfmjdtKCs/Xidf7D+o03914Bv93vuFLlKmdEl5vMSjMmbUYF3ePffk1dds/2TLlk1KPPaIPPN0FalZ42kZPLCvvNC9o/zzz7+CfoAPVrGw4jNw8GjdJ1MfVpLQP3Dr1O1FASPIKaVwQp7hoyZaqnvr7cWa3/c/HNasXxk71XINB+CFsigkQALOJeAJ42NKYx8sWCZMmiFVn22ox6OOXfqoH2d/WEC2UavTby5YbPlsDjD2Y9X6+K+/mVNy4OC3+tz2nXss58xBSmPs6TP/k1p1muvkGPdN2Sk9Z8xzCtaUFZ+qI3Nef1umTp8jGDchrdv3ENsxU1/gHxIggXQRMONj/Xo1pX+/F2T1ivekyMOFtXLiP2XdB7EeP/Bv+c0F7+k5DuY+sHz54dARSxswBvTsM0gwV8S/5ZeHjpFr165bruPg338va0tok9/enNNkwFx11ty39LwJ5Y0YPVH+UflTkl4vDk52nmrdJ5S1ddsuy3yu34Dh2toG4xdc943ExsYIrN/RN1yDGxZk82c7lNV43KLqhCkzdFtNHvPu7LHWlIv3H4/8LC1addZjf5fu/eTvvy/pywe+/k6384dDP1qSf7zmU30OFkVJjbHXr9/Q4y14o5/GXddSiDrA/LhPv6G6zqbPddRjNRRqN2+G6++GGbuRB3PnBk3aWH53wHUL5R47fkKWr1yrj/EdwO8PsJ0x+w09B7euj8ckkNkIUKGT2e6IB7QnOipaD5R48JmXWak4e/a87Ni1Vxa995HUUsoQTPxfGTdVvv3ukO45Bmp8vvfefNKrRyf14L0mL/R9WX7//aSFDCxYMCBXUUqXMqUe18qhwcPGJnJ3QgY8/DqoHxPH1UDdu2dnXQYejvCLdlRMbIe777ozySx+fr7Ss3snff3I0Z/1e/HiRfX7sJETdEwfPFh8fX31KlO1pyolWZbthRw5cuhT4eHh+h2rVljxOaQmLc81byR33ZVH1m/Yoi2EUAesgf7665z07D1QK5dgHfV01UrqQbVGvvzqazlz5i+Z9tpcKV36cSlbppTcf/+98uHSlRIeHqHLx4P1s6075LFHitk2hZ9JgATSScDTxkd7Y9/UaXNk0fsfybPPPCWd2reSb9Vku1W77pYx+pfjv8qFixcTkSytxvM//jwlO3fts1zbvGWHPldWKcVtJaUxNjQ0VJo2qa+z5X/gfmmuxstcykIopeeMeU7NVePsM08/JY8ULyKoH0p5CBT5FSqU0cf8QwIk4DoC+PfasX1LXYGJdWM9fqxWCoFXZ7wulZ4sLyOHDZCLFy5K0+c66LkllD2duvTV86AObVvq8Wj12k9lzPhpCRqM/HBNaqMW8DC/wpzTWilknXjCpNdk7ry3pUyZx6VFs0Y6piPmWpGRkdbJEhxPGj9KKwRGj52S4Lz1B+s+QTkBJRQU2+3bPi8X//5HK7QwNkZE3LJkg5IaSpKmjerLBaU0GfnKJMH8M3/++6Vq/ByzfLnS0rhRXUsec+DssdaUi/dRqp+lHi8h5cuWkl17PrcsJt5Qihn0ISzspiX5lStX9DlYpCc1xkLBjjnqI2pO/ZSyjhwyfFwCBctv6vcB5vlYoOzaua224sIcF4p4WLVnyxZoWeDEHHntJxvl6E+/yLFjv+p2fPnVN7oNDxUqoJV7aOMgpfirUL60FC5UUOa9sdCiLLM0nAckkMkI0OUqk90QT2gOHkyFi5VL0BW4EMHqxMjypQvlnnx5pW3rFvJ0jUY6uFnFJ8qplZiHtLvRU09VFH8/P2UiX15atu0q3yvlReHChUx2mT1jkp5U4wTi16zfsFnOnbsg9913jyUNDlZ8/Il2YVq+bZ2u7wWlJKqhVmw/UCvBWGVOSqCdhzsVghmbIMzW7beXr/BDBfTpI+pBAamlLGw6dWgtHyxZoSxm+upzVatUkg7tnpc6tavrz8n9gTLsG+W29f6Hy3WyMkoBY+ShggVk84aVFhesAYNGSf4HH5DlS97R5zp3bCNPPdNAFr63RD0An5RBA3rrHzFjxr8qD6l2Zs+eXUaPfFkX16RxPa1kO/D1t9oqae/nX+rzDZSrGIUESMC5BDxhfLQlYjv2NWxQW5o1bSDl1IQeEqLcq7DKCWvB5Mz/Hy/xiB7HtmzdJX16ddUKoI2bt2mlClbubSWlMRauDH37dNcr6lBg91PHEEefM5vWL5dCBfNbqv1VWRkdOPiNdOnUVivCLRd4QAIk4DICxYoW0WUfU3NLW7fJw0d+0tdeerGH3H33Xdqy+dcTvwtctiL9ImXsK0PVmHK/mvcU1On+OHlazBxHn1B/YBUNSyC4ysMqu1a9FrJq9SfKsvr2nAtpsbiH+RzmV+PHDNPZMZ+Cuz0UBLDEticYH6dMHK0VLphHQhGUnKxU81bI6uXv6XZjM432nXvpBTnrfBgTV3y0UIKCsknFiuWlR68BcujwT3qO+XyLxroP9evUtCi1rfM6e6y1LnvU8IHSrs1z+hSsw79SVpaOCObFtmPsBRXnaNNn26RBvdry5rzpuhgsFHTp0U9iY2L1Z8RIw0Lv+jVL9NgORV67Tr1kzrwF0k99L5AeShksWh46HGe9BXYHDn6n7/3Bb76T6s9UlcDAQEszX50yRho1qKOfQeUq1oizenqxp+U6D0ggsxGgQiez3REPaA8GygHKVNZaHrZSxsBHGsocCCb3UC5gRRRSvFgRFRzzX5k1+035WwXJhLk9BFp1a6muBmgj9epU1wodPMRtFTqfqdVdCAIZG4EJLl7JyVAVc8FaEFOnQvnkV2TNqkOunDl1VljjTBg7XHp26yhblPnsPqUowUTi8/1fydRJr2hllnUdOD577rx+MCGwtLVMV25f4IoHFaRy5ScsyhywwY9ErOSYGDt5VIwerFiZBykYT582Tjp07q1XoObNmabj9aCsGvGKLVgtwc1sm3LVwj0qXaoELlNIgAScSMATxkdbHLZjHxQ5m7fsVJPg7fLv5St6RRR5bMdx23J8fHwEP0TgUoqJPAIlw920aaN6tkn157SMscjoyHMGCnJrZY7dBvAkCZCAywnAUhtyh7K4sxUoSODCX75STWncsK5Uq1pZ6irFQGhoDp20xGPF9Vi0+IPlOvgwFLK2UrdODa3MwfmiRQoLFsx++um4bTL5Jd6iA4tsJoj777//qdP99PPxJBU6SIDFS7hRQflTrmzC+Z0uwOrPjz/+pNtglFCwgkSfYGFtLU+UL6uVOThX8vE460FYvDgirhxrYfltBAu1iIGEBcq0yG/xrrp11TzfSLVqlc2hfj98+KheCICiHoLnQs3qT2tesNKvUukJrdD55dhxrcSp+GQFKVa0sOz/8qC0ad1cK+OMgk4XoP6Ui+8DOGEuvTsT7Zxr2sh3ErAmQIWONQ0eO4UAlAEdlZl9UhIclDCwL1YXjMx/a5G8pqLXP1KsqFagPPJIUbvKF19fP5PFolW/Zcfk1ZjBPqjM7Y1goMfAD+UIBn578sXuTZIz5x3aPxorxPcpF7CUBNH5IebBatI/8MB92g0KrlBIU79xa1mxcp1dhc4dahKClYahL/fT2eHmBZNZ82A3Zfop6yUjMFWFYHXJWhCPB2WZfuZVq1dGrAN6QtnTrEkDQT+HDXlJtu3YrX3X8SCjkAAJOJeAJ4yPtkRsxz7ESYPyurKaSGMsxxiDscgRaVCvllbo7N33pVbqIA/iiSUnqRljUY4jzxlYiFJIgAQynsCRo3FWz48+mtgNvFaNZ+ST1R+qXfM2yZ59+3WMxJnKGnDTpytEmVdI7QbPa6UwLDwwTtiTbFaWGbiOuVPYzZuJkhq3dCh7zZwSVkGYn6Wk/MV8Cotq1Ws3k5cGjBBfpaRJSqCMunjpUoLL15S7kq1YW5QE2Mz/bNPa++yqsTYw4PZc1LqNpg3Wm8HGxFvZmGu275HK0goSGBBgueQXP2/38Y2bo8INzXa8DohPf+vWLbU4GWdp9cOho/q5hBifD6vfALBognsbBN4A1mI9n7bXB+u0PCaBzEDg9r+6zNAatsHrCaxUppNYHdmyaZVmgd2dsKphKzCbNOb8JjCm0c5bp4XyBqsDMLs0SgzEl4mIiEhSmYP8d9wRql+D+vfWio5pr/u4HjAAAB3jSURBVM2TlcpNLCm5fOWqxU/YaPYRrBlb5W5Yt9RiOQMfYPy4CQi0/08P8XJKPJZH+vbullRVic7j4Y8JxkFlPgrTXKzmYOIBFyqsREBphdWRocPHa7ZwJRsyYpzs27lBcuTIrsvDyta69ZvknYUf6s/169ZMVA9PkAAJZCyBzDI+WlOwHfvOqxgWUOZYuyWEZA/WK6TW+ZI6hmstXCC279ijLRbxQ8ysttvmSc0Ya6yIUIajHG3rM59NPDPzme8kQAKuIXBIWV/AdQbzJmu3e1Mb5nP58uaVieNHaPeYBe+8r2MEwl09Ui12wcLv7TdmCqxwINitCdbc1vLF/gMqBmJHfQoBfGHxjE0ubKW4iqUFwQ6l/fr20MeYa53887Tcb+Pury/a/IFlOqyzXxo4XF/BXNeelClTUr7+9nvtJg+lC9r00dK4ObG99MmdC1dz3aTEVWNtUvXB9RaC2EAIBQBB/Bt7YsZYY93/pdpkxNxDo+AzLlelSj6mY+yAExRskINq/gvB7wIo6J5Wllvbd+5RsZF+lHHKDc8o4N5dtER/t2CxQyGBrEzA/q/KrNwjtj3DCZw7f8GyG4hpDNx3KlWsYD4m+Y4VFJiVIvI9AplNmTbbbtq+Lw3VMRYuqgEccWLwAwBKDVtppBQVUOh0f2GA/oFxXrUNAfHqKb/iBW/MsE2e6DMeeM+3aKLas16v/sAlyQi2Ew8MDFAPp991DBqsQE9U27XDqghSoVwZbQoM32fE0sEq0Oq1G/RKNRRNzpQ2rZrrwICDh43R/sIbNm7VE5kRQwfoaj5cslIOHzkqS95/Syu2mrfsJK+p7XeNmSkerpgwYeKEHSXgkkAhARJwPgFPGB+TG/vMKvY+ZWEDZfxfyp0W8QtSI/gxNWHyazrLS/E/nOzld2SMxcotxjQE44drRkMVG8zR54xtnXDHgGCXm47tWyeK52Gbnp9JgARSR8CMj7CsQOzEPXu/0AUs/WBBIisMXEDwWwQHRoyaR9Xcy/zYx7/VS0qZA8F8ElYWUDTjBz3mOtaC8wi8i5g5y1es1ZcwTtgKFDKIg4h4YMHBwYIgunC/Qv7NyiLosUeL22ZJ9LmJClCMcRFxYZIS7Gz66YbP1K5NQ7T7O5gkpfxJqgy0DbJEKYKClELDBIe3Te/Msda2bNvPRjmzcNGHEqCseBCTCLGKrMV2jEVgYsQmQuyiEMUcYRUWKiWMtTRqWEcrdHr0HiSd1VwbCjlYnD/XvLFW5iBtVRWXc9LUWfrel1Cx2vBcQLm4d2CQlLW+dT08JoHMTIAKncx8d7Jo27AigoestfTu2cUhhc7oEYP0tuZQTOChiwcbJs/WgvNY/cVuWBC4JL0+a6q2TLFOh2ME0Ht99jSZo8rATgQQBF6bNvkVfZzUH2t3I6zEQKHz2sz5OsaMyQPlBwQxMaCgqVG9muBhbQTBhq/+959WIJldvHCtzwtdpUf8apBJm9p36/YhL7ZGx1acK9XDERH80SYocxCPAvGJxk+arvttdtfCgw4TEbhaQdmGyU4ztRsMfvC0aJZ4ZSq17WN6EiAB+wQ8YXxMbuyDCy2C1o8eO1Xv1AJFO4IIL/5gWQIgZgJtO5YhEbYsNgodxMRIShwdYxEwdfioiQKLnpKPPyaOPGfs1YnxE25k+LEAxZVtgFZ7eXiOBEjAcQLW4yOUGB3btdLKCNsAxWb8GKkC8EIxgB2eIJgfznh1gnaDyq9iNJqxBwpd/NutXfNZ2R8fi8aMPZif7lExUlZ+vE7PnUYOG6jnc/ZajcC8g4ePlYlqO3AI5lqISWhPmWPKty0H1kRwD7MV0yeUuX7tR3qzEMSAQcwdzCWHj5ogkpIrfPz1u5S7fg8VvxHKk/4vj9QM7bXHmWOtvfKt+wjrGSx6Yu6OF54NbVq10DuwSpz3lNgbY7H42l9t/PHWO4t1cYMHvaifJ8bl6okKZfU9mD3nLd1XfAcwx50ycZSlerOgjEVZ4571rIq/BAWfsRZCYtOHlDBbCuYBCWQSAj7XrofFZpK2sBkkYCFwRbkw5VCuRGbgtVywOkB8HKziYPB2RFBm3BaGt2P2OJIvvWkQw+Z/f53V7lAPqt0WkutTeuvC9vBX1OQGu7ukVhD3ApOer/ZtSRRcOrVlMT0JuJvAxvPvyg83d0hUeLT4+vtIvbu6yRO567i7GW6pLyuMjxj3rv53TXKpWGRmkuwonB+P/CyNmrXVP+bw4yclcWSMxdiIeGMmtgLKdISjvbrhwuqj/oN7K4UESCDjCcCN/obaDhsbQtgK5omIs5KU66ZJD8UQ0hjFijlv7x1jyX9qEc1effbSp+YcNqjAq4Parr1Y0Yf1uIVtuWG9fuzIAYsLvyNlwg0/Vv2X1LzTFWNtSu3C+HlVzcfz5Mmd5LPB3hh7IyxMECsouZg2uIcIXeANY7Oe84Rtl6iIGPEP8pM6ubp47Jwnpe8Ur6s4qoRAApmRQC4HFBKYmFtPzlPqhyNlplRGWq5jcmDPHSwtZaWUBz+cUqvMOfD1dzJObWcOM9XuXdpTmZMSZF4ngQwm4MhYltHjI8a91I5FwDp42Fi1K82OOAvNHp0cIu3IGIux0fZ54QhHew1I6seRvbQ8RwIk4HoCiJOClz2BAiA5JYDJg40wHBUEzXWFMgf1I8jyiwOG63ABpR4vIb/9cVK76iOmo9nJ1NF2JqfYcNVYm1LbMH7CCik5sTfGmjiYyeVLzT1MrhxeI4GsRoAKnax2x9heEnAygewqUB22/uzTu6s0auCZFg1ORsbiSIAEXESgQP4HpF+f7srtqlaSu9K4qGoWSwIkQAIZTqCgchX7fNcG2bp9t5w+/T9prFz5y5Utmey26GlpNMfatFBjHhLInASo0Mmc94WtIgG3EXi8xKOCF4UESIAEMpqA2T0mo9vB+kmABEggowjAgqVt6xYurZ5jrUvxsnAScCsBOoC7FTcrIwESIAESIAESIAESIAESIAESIAESIIH0E6BCJ/0MWQIJkAAJkAAJkAAJkAAJkAAJkAAJkAAJuJUAFTpuxc3KSIAESIAESIAESIAESIAESIAESIAESCD9BKjQST9DlkACJEACJEACJEACJEACJEACJEACJEACbiVAhY5bcbMyEiABEiABEiABEiABEiABEiABEiABEkg/ASp00s+QJZAACZAACZAACZAACZAACZAACZAACZCAWwlQoeNW3KyMBEiABEiABEiABEiABEiABEiABEiABNJPgAqd9DNkCSRAAiRAAiRAAiRAAiRAAiRAAiRAAiTgVgJU6LgVNysjARIgARJwBwGfWB93VMM6SIAESIAESIAESMCtBHx8+BPercAzeWX+mbx9bB4JkAAJkAAJpJpAeMwNuRZ1RSQ2NtV5mYEESIAESIAESIAEMiUBHx+5FROu5jeZsnVsVAYQoEInA6CzShIgARIgAdcRiImOlf3/fCrfXNkhPpzxuA40SyYBEiABEiABEnArgVg1s7kZfU2iY2PcWi8ry7wEqNDJvPeGLSMBEiABEnCQQKxYTWzUqlW4zw2JUFY6FBIgARIgARIgARLwJAIwPk5ogExzHU+6v6ntCxU6qSXG9CRAAiRAApmOQKh/bvEL8JWYSCvFTqZrJRtEAiRAAiRAAiRAAukjgBA6Puo//b+vj2T3y5m+Apk7SxOgQidL3z42ngRIgARIAATK5qouf53/Vc77nZbYGCp1+K0gARIgARIgARLwbAL+AQFSILCEFMlR2rM7yt4lS8Dn2vUw2mgli4gXSYAESIAEsgKBGOVPfi3qXxU1Bx7m3OUqK9wztpEESIAESIAESCD1BDDX8fPxF1goU7ybABU63n3/2XsSIAESIAESIAESIAESIAESIAESIIEsSICb2GfBm8YmkwAJkAAJkAAJkAAJkAAJkAAJkAAJeDcBKnS8+/6z9yRAAiRAAiRAAiRAAiRAAiRAAiRAAlmQABU6WfCmsckkQAIkQAIkQAIkQAIkQAIkQAIkQALeTYAKHe++/+w9CZAACZAACZAACZAACZAACZAACZBAFiRAhU4WvGlsMgmQAAmQAAmQAAmQAAmQAAmQAAmQgHcToELHu+8/e08CJEACJEACJEACJEACJEACJEACJJAFCVChkwVvGptMAiRAAiRAAiRAAiRAAiRAAiRAAiTg3QSo0PHu+8/ekwAJkAAJkAAJkAAJkAAJkAAJkAAJZEECVOhkwZvGJpMACZAACZAACZAACZAACZAACZAACXg3ASp0vPv+s/ckQAIkQAIkQAIkQAIkQAIkQAIkQAJZkAAVOlnwprHJJEACJEACJEACJEACJEACJEACJEAC3k2ACh3vvv/sPQmQAAmQAAmQAAmQAAmQAAmQAAmQQBYkQIVOFrxpbDIJkAAJkAAJkAAJkAAJkAAJkAAJkIB3E6BCx7vvP3tPAiRAAiRAAiRAAiRAAiRAAiRAAiSQBQlQoZMFbxqbTAIkQAIkQAIkQAIkQAIkQAIkQAIk4N0EqNDx7vvvtt6fO3dOzpw5Y7e+o0ePytKPlkhUVJTd684+ibbMnTtHLly4YCn6ypUrsm7dWnnzzTcE1+2lsSR24sGtW7d0nYcPH3ZiqWkrKiwsTI4fPyY3b95MWwHMRQIkQAIkQAIkQAIkQAIkQAIk4DYCVOi4DbVrKurbt4+E5gixvO69J58891xzmTVzhpw+dSrVlZ448ats3bJFoqOjU53XNsONG9dlxPBh8vjjj0nRIoXl0UeKCdo3efIkiYmJsSTfsX2b9Or1gkC54Q5Zu3aNjB41UjZu2KCrQ19r1awhHTu0l+XLlso///wjtmmc0S7UA7ZgbOSnn36SYUOH6Ptlzrn7fZnqc/16dSVf3rukfLmykvfuO6XqU5UFbbOW4sWKWL5n5jsHblCCWYvtd9KkxTu+l5AVK5YnKsuka9a0sU7z58mTOk3btq31Z9s/U6dM1tfd9b2xrZ+fSYAESIAESIAESIAESIAESCAjCfhnZOWsO/0EjOJl5MhRurD//fWXfLZ5k1YcLH5/sXz++X7JlSuXwxWtWrVKpk2dIhcuXpKQkBCH89kmjI2NlVYtW8revXukdOnSMmPmLMmuyluyZIku/9Sff8o7C9+1zeaWzx06dJRcOXNKk6ZNdX2nTv0px479ImPGjJUhQ4fpc/nz50+QxhkNi4iI0Mq24SNGyqhRo3WRpUqVksXvf6AUKeWdUUWqy3j33YUycEB/ufvuu6Vfv5eklLpXu3ftkqVLP5KKT1aQ3bv3SvkKFXS5UJw8/HARadOmjf585n9n5P3Fi+XAga8kXFn1DHp5sD5v+520btSTFSvqj0ah1617d6VIymedRMAeEqv+g2z49FP5+ONV8vzzLfVn8ydGfccoJEACJEACJEACJEACJEACJOCtBKjQ8YA7nyNHqIyIV+igO/ixvHDhOzL45UHSqWMHWbN2nfj7J7zVULj4+PikuveO5tu0caNW5lStWk02bNwkfn5+uq6WrVpLx47KEmb5MqU8GSpFihRNtg0p1ZeW63fccYe0a9/BUq9xvTKKC1ywTWNJ7OQDX19fpeR5Pl2lpsQgqcJhiQRlDr4/e/bsk/wFCuikrdQ9ate+vbbamTV7pixbtsJSBJRzQ4cNt3yeMmWqsr4qIvPnz7ModHDR9jtpyWBz0KtXbyle/BGbs4k/du3SWapVe1ry5Uuo/EmckmdIgARIgARIgARIgARIgARIwDsI0OXKA+8zlAQvvNBLYP2wa9fOBK4zcHWBO80dodmlTOlSMnbsGEvsmhbNm8r8efM0kSqVK4lxfcGJ5PLZQ7hj53Z9esGCty3KHJwIDAyU8eMnaIuQrVu32ssq4eHhMmnSRN0+tPOZp6sqpcLSBGn37/9CKxxwHS5do0aOEMSAMbLo3XelUsUndD/xvvi998wl+ebrr6VC+XJy5MgRGTdurHTp3Elf663cvnD+jz9+T5DGZPz11+PKiqWvPFSogH5BWWYdF+j8+fPSs0d3fQ2uZU0aN5LvvvtOZ9+2bZuAKQSMUQ/cr9BXHC/58AN9DX+uXftPXnlltD6PcuAKtnv3Lsv1L774XF/buXOHtGz5nO4j3KHmzpltSYODzz/fJ2hzUgKGkFmzZ1uUOSYtFHEvvthPfvn5F/nvv//M6UTvoaF3aIudv//+W/5S1mGukObNW+hiBw7s74riWSYJkAAJkAAJkAAJkAAJkAAJZEkCVOhkydvmWKPbt4uzQjnyY1zA3TVrVkuP7t0EP8LhXlSkaBEd02TChPG6wIYNG0vJkiX1cevWraVRoyb6OKV89lpz6IcfpESJEokUBUhbrFhx+ePkKa0wsJcXcXdenTZVnnzySe2aBBeeF3r20AoQpIeSom6d2hIeES6vvz5fGtRvoN7nyrBhQ3RxHy35UAYMeEkpekrq6wUKFpSXXnpRVq6MszS5rmL7wMUKbkKVKlaSWrVr63w1ataStm3bSs6cucQ6DS5CWdO4UUNZ/fFqgQVL4yZNBEqap6s9JZcvX9Yxh+rVrSMbVFyeNm3aSvcePZTC6EetjIIFUIEC+QVMIWCMemARA2sqtAXWMpDIyEjp3KmjzJk9S8qVKyd9X3xRK55QNxRRkBvXb+g87du1k+CgYG0ZA3eo0aNHyc8//6zTIP4M4uIgX1Ly448/6kt16tS1m2TqtFflh0OHtbWS3QTxJ0+fOa2P7rrrruSSpflazZo1tTsYXK/wXaSQAAmQAAmQAAmQAAmQAAmQAAmIJPTDIRGPIvDoo4/q/hw6dEjaq7gxAQEBMmnyFOndu4+2lMFFWL/gh/KECROlS9eucvbcWfnyy/3S76X+lhg6KeWzhYbdqmCZYu3WZJsmuc8PFS4s7y56TytOkK6nsjYqkP8B2bFju9SpW1dZq+zW2d9++x2LyxZis2BnKsjmzzZrCyATo6dDx47y1ltvSo7sOfR16z8o746cd+hYMFC4wDLFniCYLyxQ9uz9XCtakKZFi+e00mTtmjU6Hg+UNFWrVZOKSkkEQVmwekKMmSZNmmqmsDyq9vTTMnDQyzqNtVURTmxW8Y+gKJoz53VtYYVzffr0VTF2ysiQIS/r+nEO0k4pdBCbCNK1S1elQHtUNm/aKLjv9953n9SrX18pj0rp6/b+/PD9d5pTnjx5LJdhMYSXtYSGhlqsrCJuRQiCXUMu/X1JudNt0Iq2Ro0bS7Zs2SzZrl+/pi2ULCfiD2ANVLjww5bTvV7oqRVolhPqoGu3bpqX9bnRr4yRzz77TF7s21e7XiHmD4UESIAESIAESIAESIAESIAEvJkAFToefPcD439gX79xQ/eyceM4i5tLly5pixO49pw+fVrgLpOcpDaf2XUoOCgouWKTvIbgvBC4M/3777/K5eeq/vzX2TiXnoIFCurPAwcM0JYblSpXlmbNmutz+AOFAZRUsNKBtUyZMmV1OkuCNBx8/fVBqVy5ikWZgyKgsLl2/babFwIqQ5n1+++/yZUrV5Xlzr+6posXLzpcI5RvkPYdbsf4gcIFCrnZs2Ym2AmsQcPb1jewQipYqJAcOHhA54dyZdWq5K1ZLqut2u+8M6FVzfx5ryuXuHG6DPPHOjAyuN7zaV5zSb8jrg7c6GwlW9BtBY+5Zhu3KVu2ILFN5++XeFhCgO533lko1as/Iy8PGigfLvnIFMl3EiABEiABEiABEiABEiABEvBKAol/OXklBs/s9IkTJ3THypYtq9+PHz+mXZdMXBdHe53afPjxjd2Qjh496mgVCdIhoDJi1dgqmqAsgcCqBhZF06dP17tG4RwsRCZOnKSVOSOGj9B5EUcHLwToba+C/ELpEJI9O5KnWsCsc5cuSeaDW9hr01/VW7InmciBC7/88rPcf//9CaxdkK1QwUI6N3bkMpInz53mUL/DaiXWajv4BBftfChatJgs/WiJWAdVrt+goUA5BNm3b6+2XPJXll1GoLzp0aOn/rhGWSYhRtNbC25bSpl0YJ6SQglp577+ukNBkZG2whNPyMuDh8jMGa/JJ5+swykKCZAACZAACZAACZAACZAACXgtAcbQ8eBbv337Nt07bI0NQWyW48d/1e5MP/30i3KvOi/du/fQCg+dIIk/aclXQW11DVcjWAHZyk0VuwZxbkxMGOvriCXTunVLbW2yZu0n8uuJ3/UW6rA+CVLWHEbgsnTq9BmlUNgj/QcM1BY5DerX05ehtFmw4G356+x5WbtuvdRWMXIWLHhLhg0farKn+h3xgE6fiosVYy/ztq1btTIHbmZo08k/TyuFVlw8G3vpkzr3UKGHtGuXUV6ZdOfOx7mT3X//A+ZUut+LFY3bYQzBk43AXQvbg+OF+DyQQoq9ESjqOnbqrF8zZs7UpydMGGcuu/x9uFLWYVes3r16KSuzOCYur5QVkAAJkAAJkAAJkAAJkAAJkEAmJECFTia8Kc5o0vbt2/XOT/gBjuDAiIsCi5kmTZvq2DQIyBscHCJ79uxJUJ1v/FbmV5Q7DsTRfAkKUR9MoOEB/fvbXpIFKp5N7969BC4/tnL06BF9qlvXbloRc++99+qAwQjyawS7M61f/4neih1WG5MmTZa+fV/UihC0e926tYI02Hq8Vq1a8sGHS7QSAIGa0yqI0QNrlJMn/7AUceLEr1KrZg1d36FDcWUPVVuxo00IEPzNt99Y0uIAu49BLiXj4lYyXvm2XcXRMYJ7sG7tWt0HWD85KmARERGRZPK27drra2PUjlq2ijf0bcmSJTqwdc6cOe2WgS3nsZPaZ5s367hLdhM5+WSQcuNDbCTE6Hl/8WInl87iSIAESIAESIAESIAESIAESCDrEKDLVda5V0m2FD9u33hjvr6OHZX27d2jgxLDBWfjps2W4MawMoGLTYXyFSRv3rzy/vvvyW+/nUhgofOE2lkKgp2m2rZtp92bHMmnM1n9gYUHlCpwebqqYuA0a9pMB79FwGJs0Y0dnLB7ka1A+QSZM2eOiq0SpGPGTJ06JUEyxJkZPmyoViYgMDH6vGrVSl1mrly5ZPnyZVrJgF2aYCl08OBBvSvUoJcHJygnNR969eotK1eslObNmqnYPAO1m9LcuXM0PyiMjPXQSLV9eqeOneU3FUdn5IjhCaqAMgL9XrFihTz62GOC3aVsd4aqr3bsggVK165dZPiIEXLPPffIKrU7F3bCSk3cGLirYXt1uEh9/sWXCdphPuTLl0+mTJ2m21n92Wd1sOwHHnxQDv3wvbZowvcKu4glJ0OGDNP3GDts7dy5W0yMHOvvpHX+J594Usqre2Jk6dKluo/mM94feOCBREGRra+XKVNGRo4cJVOmTLY+zWMSIAESIAESIAESIAESIAES8CoCVOhk8dttrD6g4DACF6Nx48ar+DLP63gs5vyi996Xdm3b6GDBOIfrsLCAosIIAv0i2O7atWuUIuSAHDt+QhzJZ/Jbv0+fPkO77cBiZuuWLZZLcPOaPGWqxWLFKAHwjgDAUFz06d1bunTupPMgNo7ZchwnunXrroM6Y2tvKIwg6PO8+W/q47lz5+myoZQyAoUM3HUgpj5zzXw27/bSQMny8erVMn7cOLXdeh+dFdZPO3bukvvUjlJQjsANDIGLEQMIyrSF7y7S28RblwsFCOIDDRo4QLu+NWrUWJdl0sCqaN0n62XQoAEyetRIfQ11z1d9sw78rC/Y+eMTbwUUEBCg22CrMLLNggDUDyolDtrTv38/y2XUuWz5Cm1tZDmpDsz3zZxDvJ8BAwfpbda3qF2osLOWSWP9nTTp8b2EQsf0F/fQVqpXr6EVOj7ioy+ZtNbpEEvn00/XpzlOk3VZPCYBEiABEiABEiABEiABEiCBrEjAR+3SE5sVG842p53A5cuX1Rbm/gksc2xLMztVBQYGWi45ks+S2OYArkqRkZHy0EOFtauUzeVEHxGoF7tDweLGejts64QxKgAwLFFy585t2Ybd+jrqwy5ZUK4YJYP19bQeh6ldw6JjoiU09I5ERSD2DeIAQZHi5+eX6DpOoN1wowoODrYoNuwlRPtvqLrAIC2CtqAN9hQi9srDtu/nz5+X/Pnzq92vEgZctpee50iABEiABEiABEiABEiABEiABDKOABU6GceeNZMACZAACZAACZAACZAACZAACZAACZBAmggwKHKasDETCZAACZAACZAACZAACZAACZAACZAACWQcASp0Mo49ayYBEiABEiABEiABEiABEiABEiABEiCBNBH4P3ITBEk0dlFVAAAAAElFTkSuQmCC;" vertex="1" parent="1">
          <mxGeometry x="279" y="682" width="639" height="178.25" as="geometry" />
        </mxCell>
        <mxCell id="PejnDQKfWoKK_Z0rBTD7-47" value="" style="edgeStyle=orthogonalEdgeStyle;rounded=0;orthogonalLoop=1;jettySize=auto;html=1;" edge="1" parent="1" source="PejnDQKfWoKK_Z0rBTD7-45" target="PejnDQKfWoKK_Z0rBTD7-46">
          <mxGeometry relative="1" as="geometry" />
        </mxCell>
        <UserObject label="OCR Scanlines SA + SE + IL&amp;nbsp;" link="https://docs.google.com/spreadsheets/d/1oDbNtjV6YJvdGfklhz1wcYQss87pC18xlzxYJ__D00Q/edit?gid=899599068#gid=899599068" id="PejnDQKfWoKK_Z0rBTD7-45">
          <mxCell style="rounded=1;whiteSpace=wrap;html=1;fillColor=#e1d5e7;strokeColor=#9673a6;" vertex="1" parent="1">
            <mxGeometry x="1321" y="72" width="119" height="94" as="geometry" />
          </mxCell>
        </UserObject>
        <mxCell id="PejnDQKfWoKK_Z0rBTD7-46" value="Start Early - It can take awhile" style="whiteSpace=wrap;html=1;fillColor=#e1d5e7;strokeColor=#9673a6;rounded=1;" vertex="1" parent="1">
          <mxGeometry x="1320.5" y="208" width="120" height="60" as="geometry" />
        </mxCell>
        <UserObject label="OCR Scanlines SA + SE + IL&amp;nbsp;" link="https://docs.google.com/spreadsheets/d/1oDbNtjV6YJvdGfklhz1wcYQss87pC18xlzxYJ__D00Q/edit?gid=899599068#gid=899599068" id="PejnDQKfWoKK_Z0rBTD7-48">
          <mxCell style="rounded=1;whiteSpace=wrap;html=1;fillColor=#e1d5e7;strokeColor=#9673a6;" vertex="1" parent="1">
            <mxGeometry x="540" y="375" width="117" height="39" as="geometry" />
          </mxCell>
        </UserObject>
      </root>
    </mxGraphModel>
  </diagram>
</mxfile>
